<?xml version="1.0" encoding="UTF-8"?>
<svg xmlns="http://www.w3.org/2000/svg" xmlns:xlink="http://www.w3.org/1999/xlink" version="1.2" >
<font id="Mercury Text G4 Bold">
<font-face  font-family="Mercury" units-per-em="1000" ascent="750" descent="-250" font-style="normal" font-weight="700" font-stretch="normal" cap-height="750" x-height="500" underline-position="-65.5" underline-thickness="59" />
<missing-glyph  horiz-adv-x="500" d="" />
<glyph glyph-name="NULL" d="" />
<glyph glyph-name="CR" unicode="&#xd;" horiz-adv-x="250" d="" />
<glyph glyph-name="space" unicode="&#x20;" horiz-adv-x="210" d="" />
<glyph glyph-name="exclam" unicode="&#x21;" horiz-adv-x="298" d="M243 553 C243 611 212 652 149 652 C86 652 55 611 55 553 C55 493 93 350 126 210 L172 210 C206 350 243 493 243 553 L243 553 Z M242 68 C242 118 199 150 149 150 C99 150 56 118 56 68 C56 18 99 -15 149 -15 C199 -15 242 18 242 68 L242 68 Z " />
<glyph glyph-name="quotedbl" unicode="&#x22;" horiz-adv-x="450" d="M423 584 C423 622 391 652 354 652 C320 652 295 630 283 595 C272 564 269 529 264 492 L251 388 L289 370 L350 448 C372 476 394 505 411 536 C420 553 423 568 423 584 L423 584 Z M218 584 C218 622 186 652 149 652 C115 652 90 630 78 595 C67 564 64 529 59 492 L46 388 L84 370 L145 448 C167 476 189 505 206 536 C215 553 218 568 218 584 L218 584 Z " />
<glyph glyph-name="numbersign" unicode="&#x23;" horiz-adv-x="642" d="M598 384 L598 447 L499 447 L541 587 L474 606 L429 447 L296 447 L338 587 L271 606 L226 447 L90 447 L90 384 L208 384 L188 315 L159 218 L44 218 L44 155 L140 155 L102 27 L168 8 L210 155 L343 155 L305 27 L371 8 L413 155 L552 155 L552 218 L431 218 L455 302 L480 384 L598 384 Z M411 384 L391 315 L362 218 L228 218 L252 302 L277 384 L411 384 Z " />
<glyph glyph-name="dollar" unicode="&#x24;" horiz-adv-x="583" d="M534 183 C534 283 477 331 336 380 L352 569 C407 549 437 507 467 435 L507 441 L504 599 C459 611 415 621 361 626 L369 714 L302 719 L295 628 C154 627 62 548 62 437 C62 339 124 295 256 249 L238 44 C170 72 136 121 92 207 L52 205 L60 26 C119 7 165 -4 227 -12 L218 -115 L285 -119 L294 -14 C447 -7 534 75 534 183 L534 183 Z M295 575 L280 398 C220 418 196 447 196 488 C196 533 227 567 295 575 L295 575 Z M399 135 C399 83 359 44 294 39 L310 232 C370 214 399 185 399 135 L399 135 Z " />
<glyph glyph-name="percent" unicode="&#x25;" horiz-adv-x="816" d="M370 463 C370 558 307 627 207 627 C105 627 33 551 33 461 C33 366 97 296 197 296 C300 296 370 373 370 463 L370 463 Z M142 8 L194 -28 L436 297 L674 602 L621 638 L380 314 L142 8 Z M783 149 C783 244 719 314 619 314 C516 314 446 237 446 147 C446 52 509 -17 609 -17 C711 -17 783 59 783 149 L783 149 Z M266 463 C266 381 245 341 203 341 C164 341 137 379 137 460 C137 541 161 582 200 582 C241 582 266 543 266 463 L266 463 Z M550 147 C550 229 571 269 613 269 C652 269 679 231 679 150 C679 69 655 28 616 28 C575 28 550 67 550 147 L550 147 Z " />
<glyph glyph-name="ampersand" unicode="&#x26;" horiz-adv-x="723" d="M718 353 L494 353 L494 325 L554 298 L477 184 L355 343 L376 354 C452 393 495 441 495 500 C495 575 436 628 324 628 C203 628 121 557 121 464 C121 424 136 383 173 330 L150 320 C71 284 21 239 21 154 C21 52 110 -15 212 -15 C284 -15 331 12 387 60 C435 4 476 -15 550 -15 C605 -15 660 1 697 22 L694 58 C683 56 671 55 652 55 C595 55 566 70 509 142 L657 299 L718 324 L718 353 Z M378 500 C378 457 362 414 331 375 L312 400 C275 448 262 478 262 511 C262 551 285 579 319 579 C357 579 378 549 378 500 L378 500 Z M356 98 C332 84 314 77 285 77 C212 77 156 134 156 203 C156 233 169 261 193 285 L202 294 L356 98 Z " />
<glyph glyph-name="quotesingle" unicode="&#x27;" horiz-adv-x="245" d="M218 584 C218 622 186 652 149 652 C115 652 90 630 78 595 C67 564 64 529 59 492 L46 388 L84 370 L145 448 C167 476 189 505 206 536 C215 553 218 568 218 584 L218 584 Z " />
<glyph glyph-name="parenleft" unicode="&#x28;" horiz-adv-x="378" d="M194 282 C194 486 255 636 386 704 L370 741 C199 680 47 525 47 282 C47 39 199 -116 370 -177 L386 -140 C255 -72 194 78 194 282 L194 282 Z " />
<glyph glyph-name="parenright" unicode="&#x29;" horiz-adv-x="378" d="M331 282 C331 525 179 680 8 741 L-8 704 C123 636 184 486 184 282 C184 78 123 -72 -8 -140 L8 -177 C179 -116 331 39 331 282 L331 282 Z " />
<glyph glyph-name="asterisk" unicode="&#x2a;" horiz-adv-x="446" d="M40 521 L167 463 L167 451 L40 392 L72 327 L190 411 L200 407 L185 264 L261 264 L246 407 L256 411 L374 327 L406 392 L280 451 L280 463 L406 521 L374 586 L256 502 L246 507 L261 649 L185 649 L200 507 L190 502 L72 586 L40 521 Z " />
<glyph glyph-name="plus" unicode="&#x2b;" horiz-adv-x="520" d="M471 275 L471 338 L294 338 L294 516 L226 516 L226 338 L48 338 L48 275 L226 275 L226 94 L294 94 L294 275 L471 275 Z " />
<glyph glyph-name="comma" unicode="&#x2c;" horiz-adv-x="250" d="M216 55 C216 127 178 166 119 166 C71 166 34 120 34 73 C34 32 60 -2 100 -2 C103 -2 108 -2 113 -1 L119 0 L127 -8 C118 -47 79 -100 12 -161 L36 -188 C151 -124 216 -38 216 55 L216 55 Z " />
<glyph glyph-name="hyphen" unicode="&#x2d;" horiz-adv-x="355" d="M317 183 L317 298 L38 298 L38 183 L317 183 Z " />
<glyph glyph-name="period" unicode="&#x2e;" horiz-adv-x="250" d="M216 75 C216 125 175 166 125 166 C75 166 34 125 34 75 C34 25 75 -16 125 -16 C175 -16 216 25 216 75 L216 75 Z " />
<glyph glyph-name="slash" unicode="&#x2f;" horiz-adv-x="392" d="M399 713 L336 741 L139 275 L-63 -183 L0 -211 L197 254 L399 713 Z " />
<glyph glyph-name="zero" unicode="0" horiz-adv-x="591" d="M562 306 C562 500 465 628 298 628 C139 628 28 500 28 306 C28 113 125 -15 291 -15 C451 -15 562 113 562 306 L562 306 Z M394 306 C394 114 356 38 303 38 C242 38 196 91 196 306 C196 521 234 575 287 575 C348 575 394 499 394 306 L394 306 Z " />
<glyph glyph-name="one" unicode="1" horiz-adv-x="419" d="M295 81 L295 608 L271 621 L32 588 L32 556 L138 503 L138 81 L33 36 L33 0 L400 0 L400 36 L295 81 Z " />
<glyph glyph-name="two" unicode="2" horiz-adv-x="506" d="M289 409 C289 342 261 290 192 217 C148 170 92 119 8 53 L13 0 L435 0 L468 200 L442 205 L368 118 L181 113 L177 124 C370 263 437 339 437 447 C437 543 369 628 244 628 C152 628 84 572 39 486 L69 464 C116 499 148 514 190 514 C250 514 289 474 289 409 L289 409 Z " />
<glyph glyph-name="three" unicode="3" horiz-adv-x="519" d="M474 179 C474 275 405 321 313 343 L313 356 C408 385 451 430 451 498 C451 574 382 628 273 628 C174 628 100 580 47 511 L71 485 C125 517 158 531 208 531 C278 531 306 499 306 459 C306 403 254 370 115 324 L115 285 C274 262 330 211 330 140 C330 73 288 42 224 42 C200 42 185 47 167 55 C180 121 157 172 94 172 C56 172 21 144 21 97 C21 32 106 -15 236 -15 C372 -15 474 63 474 179 L474 179 Z " />
<glyph glyph-name="four" unicode="4" horiz-adv-x="578" d="M540 161 L540 250 L445 250 L445 621 L301 627 L12 209 L22 161 L298 161 L298 76 L192 36 L192 0 L549 0 L549 36 L445 76 L445 161 L540 161 Z M301 250 L121 250 L283 490 L301 490 L301 250 Z " />
<glyph glyph-name="five" unicode="5" horiz-adv-x="524" d="M478 193 C478 313 409 394 233 394 C201 394 174 392 144 387 L140 389 L151 482 L439 482 L454 657 L420 666 L377 612 L99 612 L66 269 L97 255 C134 266 162 270 197 270 C296 270 349 230 349 151 C349 78 300 42 241 42 C214 42 194 49 175 60 C184 125 160 172 102 172 C64 172 35 142 35 98 C35 33 120 -15 240 -15 C379 -15 478 73 478 193 L478 193 Z " />
<glyph glyph-name="six" unicode="6" horiz-adv-x="568" d="M528 215 C528 325 469 404 346 404 C302 404 259 392 226 371 L217 375 C245 436 266 465 313 509 C353 546 382 566 443 596 L433 639 C323 614 233 578 159 506 C76 426 37 334 37 230 C37 64 147 -15 283 -15 C422 -15 528 67 528 215 L528 215 Z M370 181 C370 90 342 38 293 38 C231 38 198 116 198 223 C198 256 200 286 207 313 C230 324 246 329 271 329 C333 329 370 282 370 181 L370 181 Z " />
<glyph glyph-name="seven" unicode="7" horiz-adv-x="496" d="M372 479 L226 229 L79 -15 L223 -15 L490 592 L472 612 L123 612 L97 650 L66 641 L39 423 L70 415 L125 479 L372 479 Z " />
<glyph glyph-name="eight" unicode="8" horiz-adv-x="548" d="M368 344 C444 378 487 428 487 490 C487 567 411 628 282 628 C147 628 60 549 60 452 C60 374 106 329 170 297 C97 265 43 213 43 141 C43 51 140 -15 267 -15 C403 -15 508 60 508 166 C508 246 467 296 368 344 L368 344 Z M318 367 C232 406 195 443 195 497 C195 546 228 580 279 580 C338 580 372 541 372 484 C372 437 352 403 318 367 L318 367 Z M213 277 C325 226 363 185 363 123 C363 70 328 33 273 33 C210 33 165 77 165 151 C165 198 181 241 213 277 L213 277 Z " />
<glyph glyph-name="nine" unicode="9" horiz-adv-x="568" d="M531 383 C531 549 421 628 285 628 C146 628 40 546 40 398 C40 288 99 209 222 209 C266 209 309 221 342 242 L351 238 C323 177 302 148 255 104 C217 69 175 44 115 17 L125 -26 C231 -6 332 33 409 107 C491 187 531 279 531 383 L531 383 Z M370 390 C370 357 368 327 361 300 C338 289 322 284 297 284 C235 284 198 331 198 432 C198 523 226 575 275 575 C337 575 370 497 370 390 L370 390 Z " />
<glyph glyph-name="colon" unicode="&#x3a;" horiz-adv-x="260" d="M219 345 C219 394 179 434 130 434 C81 434 41 394 41 345 C41 296 81 256 130 256 C179 256 219 296 219 345 L219 345 Z M219 73 C219 122 179 162 130 162 C81 162 41 122 41 73 C41 24 81 -16 130 -16 C179 -16 219 24 219 73 L219 73 Z " />
<glyph glyph-name="semicolon" unicode="&#x3b;" horiz-adv-x="260" d="M219 345 C219 394 179 434 130 434 C81 434 41 394 41 345 C41 296 81 256 130 256 C179 256 219 296 219 345 L219 345 Z M221 55 C221 127 183 166 124 166 C76 166 39 120 39 73 C39 32 65 -2 105 -2 C108 -2 113 -2 118 -1 L124 0 L132 -8 C123 -47 84 -100 17 -161 L41 -188 C156 -124 221 -38 221 55 L221 55 Z " />
<glyph glyph-name="less" unicode="&#x3c;" horiz-adv-x="520" d="M438 165 L147 309 L438 449 L421 516 L66 332 L66 283 L421 98 L438 165 Z " />
<glyph glyph-name="equal" unicode="&#x3d;" horiz-adv-x="520" d="M459 438 L61 438 L61 370 L459 370 L459 438 Z M459 174 L459 242 L61 242 L61 174 L459 174 Z " />
<glyph glyph-name="greater" unicode="&#x3e;" horiz-adv-x="520" d="M373 306 L82 166 L99 99 L454 283 L454 332 L99 517 L82 450 L373 306 Z " />
<glyph glyph-name="question" unicode="&#x3f;" horiz-adv-x="494" d="M462 471 C462 576 362 652 236 652 C99 652 23 590 23 523 C23 477 59 442 106 442 C151 442 183 480 183 525 C183 546 179 567 173 583 C185 587 198 591 222 591 C273 591 309 558 309 513 C309 474 292 455 234 417 C175 378 146 347 146 309 C146 284 155 257 179 210 L245 210 C245 245 257 266 340 311 C417 353 462 392 462 471 L462 471 Z M305 68 C305 118 262 150 212 150 C162 150 119 118 119 68 C119 18 162 -15 212 -15 C262 -15 305 18 305 68 L305 68 Z " />
<glyph glyph-name="at" unicode="&#x40;" horiz-adv-x="921" d="M797 301 C797 167 731 94 660 94 C609 94 597 139 613 209 L665 449 L639 458 L593 425 C560 439 539 444 506 444 C400 444 247 337 247 163 C247 95 291 50 352 50 C403 50 440 71 485 121 L497 119 C516 69 566 46 635 46 C777 46 875 170 875 322 C875 488 725 652 505 652 C253 652 44 451 44 223 C44 -41 250 -178 467 -178 C579 -178 688 -134 758 -76 L741 -49 C677 -86 598 -118 504 -118 C274 -118 127 25 127 219 C127 461 276 603 469 603 C674 603 797 462 797 301 L797 301 Z M522 343 L483 159 C458 144 436 137 417 137 C389 137 372 153 372 198 C372 254 408 390 462 390 C481 390 503 373 522 343 L522 343 Z " />
<glyph glyph-name="A" unicode="A" horiz-adv-x="731" d="M651 66 L433 643 L301 643 L74 70 L-2 37 L-2 0 L222 0 L222 32 L160 62 L206 195 L419 195 L468 56 L394 32 L394 0 L728 0 L728 37 L651 66 Z M399 251 L225 251 L306 488 L316 488 L399 251 Z " />
<glyph glyph-name="B" unicode="B" horiz-adv-x="678" d="M638 173 C638 266 562 318 432 331 L432 346 C556 368 612 418 612 497 C612 572 545 637 375 637 L28 637 L28 600 L115 576 L115 61 L28 37 L28 0 L401 0 C555 0 638 68 638 173 L638 173 Z M289 354 L289 589 L317 588 C393 585 441 556 441 475 C441 398 393 361 317 356 L289 354 Z M452 173 C452 84 407 47 333 47 C317 47 303 49 289 53 L289 309 L308 308 C400 303 452 265 452 173 L452 173 Z " />
<glyph glyph-name="C" unicode="C" horiz-adv-x="705" d="M653 211 L618 215 L499 57 C474 50 463 48 439 48 C322 48 240 147 240 329 C240 509 307 594 397 594 C472 594 526 548 597 391 L642 393 L628 655 L594 655 L560 621 C518 640 459 652 402 652 C188 652 45 497 45 312 C45 97 196 -15 403 -15 C494 -15 567 -1 632 25 L653 211 Z " />
<glyph glyph-name="D" unicode="D" horiz-adv-x="768" d="M115 576 L115 61 L28 37 L28 0 L344 0 C572 0 723 125 723 327 C723 519 577 637 351 637 L28 637 L28 600 L115 576 Z M528 319 C528 126 458 65 349 59 L295 56 L295 582 L329 580 C445 573 528 504 528 319 L528 319 Z " />
<glyph glyph-name="E" unicode="E" horiz-adv-x="672" d="M600 637 L28 637 L28 600 L115 576 L115 61 L28 37 L28 0 L621 0 L640 207 L611 211 L539 127 C504 86 478 64 418 61 L295 55 L295 290 L331 290 C380 290 392 278 417 212 L428 183 L460 183 L460 454 L429 454 L417 422 C391 353 381 344 331 344 L295 344 L295 583 L386 579 C453 576 476 558 515 507 L585 417 L614 422 L600 637 Z " />
<glyph glyph-name="F" unicode="F" horiz-adv-x="643" d="M615 422 L601 637 L28 637 L28 600 L115 576 L115 61 L28 37 L28 0 L388 0 L388 37 L295 61 L295 275 L328 275 C385 275 396 257 421 197 L433 168 L464 168 L464 439 L433 439 L421 408 C398 349 385 330 328 330 L295 330 L295 583 L392 579 C454 576 473 562 516 507 L586 417 L615 422 Z " />
<glyph glyph-name="G" unicode="G" horiz-adv-x="726" d="M638 413 L628 655 L587 655 L553 621 C514 639 465 651 397 651 C193 651 45 503 45 312 C45 119 174 -16 350 -16 C424 -16 475 4 532 36 L612 -9 L648 -5 L648 245 L709 270 L709 306 L399 306 L399 270 L484 245 L484 66 C474 63 460 60 448 60 C318 60 240 157 240 345 C240 508 302 593 398 593 C470 593 524 537 593 411 L638 413 Z " />
<glyph glyph-name="H" unicode="H" horiz-adv-x="816" d="M521 363 L295 363 L295 576 L369 600 L369 637 L28 637 L28 600 L115 576 L115 61 L28 37 L28 0 L369 0 L369 37 L295 61 L295 298 L521 298 L521 61 L447 37 L447 0 L788 0 L788 37 L701 61 L701 576 L788 600 L788 637 L447 637 L447 600 L521 576 L521 363 Z " />
<glyph glyph-name="I" unicode="I" horiz-adv-x="430" d="M305 61 L305 576 L391 600 L391 637 L38 637 L38 600 L125 576 L125 61 L38 37 L38 0 L391 0 L391 37 L305 61 Z " />
<glyph glyph-name="J" unicode="J" horiz-adv-x="564" d="M459 242 L459 576 L543 600 L543 637 L192 637 L192 600 L279 576 L279 171 C279 81 248 43 195 37 C197 145 162 189 98 189 C49 189 9 151 9 99 C9 25 79 -18 184 -18 C272 -18 334 6 381 44 C434 87 459 143 459 242 L459 242 Z " />
<glyph glyph-name="K" unicode="K" horiz-adv-x="752" d="M459 382 L626 564 L724 600 L724 637 L440 637 L440 610 L513 566 L348 348 L295 348 L295 576 L369 600 L369 637 L28 637 L28 600 L115 576 L115 61 L28 37 L28 0 L369 0 L369 37 L295 61 L295 282 L340 282 L483 52 L433 27 L433 0 L752 0 L752 37 L671 72 L459 382 Z " />
<glyph glyph-name="L" unicode="L" horiz-adv-x="635" d="M608 237 L581 240 L506 144 C459 84 427 62 369 59 L295 55 L295 576 L382 600 L382 637 L28 637 L28 600 L115 576 L115 61 L28 37 L28 0 L585 0 L608 237 Z " />
<glyph glyph-name="M" unicode="M" horiz-adv-x="997" d="M882 61 L882 576 L969 600 L969 637 L652 637 L618 531 L510 203 L497 203 L389 531 L354 637 L28 637 L28 600 L115 576 L115 70 L28 37 L28 0 L286 0 L286 37 L201 70 L201 519 L214 519 L403 0 L519 0 L692 519 L707 519 L707 61 L632 37 L632 0 L969 0 L969 37 L882 61 Z " />
<glyph glyph-name="N" unicode="N" horiz-adv-x="795" d="M120 73 L35 37 L35 0 L291 0 L291 37 L206 73 L206 464 L218 464 L476 98 L546 -6 L685 -6 L685 564 L770 600 L770 637 L514 637 L514 600 L599 564 L599 243 L587 243 L390 533 L321 637 L41 637 L41 600 L120 567 L120 73 Z " />
<glyph glyph-name="O" unicode="O" horiz-adv-x="762" d="M717 319 C717 499 612 652 384 652 C166 652 45 499 45 319 C45 138 151 -15 378 -15 C596 -15 717 138 717 319 L717 319 Z M523 319 C523 132 471 38 388 38 C298 38 239 108 239 319 C239 529 291 600 374 600 C464 600 523 506 523 319 L523 319 Z " />
<glyph glyph-name="P" unicode="P" horiz-adv-x="661" d="M632 450 C632 571 530 637 370 637 L28 637 L28 600 L115 576 L115 61 L28 37 L28 0 L394 0 L394 37 L295 61 L295 261 C320 258 352 256 379 256 C529 256 632 317 632 450 L632 450 Z M447 450 C447 353 400 315 320 315 L295 315 L295 584 L323 582 C398 577 447 540 447 450 L447 450 Z " />
<glyph glyph-name="Q" unicode="Q" horiz-adv-x="762" d="M717 319 C717 499 612 652 384 652 C166 652 45 499 45 319 C45 158 129 23 306 -5 L327 -45 C356 -102 372 -124 391 -139 C423 -165 469 -172 541 -172 L683 -172 L692 -136 C641 -128 604 -117 568 -92 C538 -71 511 -46 482 2 C634 42 717 169 717 319 L717 319 Z M523 319 C523 132 471 38 388 38 C298 38 239 108 239 319 C239 529 291 600 374 600 C464 600 523 506 523 319 L523 319 Z " />
<glyph glyph-name="R" unicode="R" horiz-adv-x="713" d="M642 481 C642 581 556 637 415 637 L28 637 L28 600 L115 576 L115 61 L28 37 L28 0 L381 0 L381 37 L295 61 L295 277 L306 277 C358 277 391 261 413 205 L450 112 C483 29 507 0 585 0 L723 0 L723 37 C700 45 677 57 660 77 C637 105 625 125 604 188 C583 250 545 289 453 303 L453 318 C587 339 642 405 642 481 L642 481 Z M464 459 C464 374 416 336 342 333 L295 331 L295 582 L337 580 C413 576 464 541 464 459 L464 459 Z " />
<glyph glyph-name="S" unicode="S" horiz-adv-x="574" d="M533 198 C533 272 496 331 415 370 C378 388 336 401 301 417 C233 448 209 473 209 517 C209 564 243 594 296 594 C359 594 405 554 458 448 L503 451 L486 652 L446 652 L418 618 C383 637 341 652 280 652 C154 652 61 568 61 455 C61 375 102 318 173 284 C204 269 239 255 271 242 C358 206 388 184 388 132 C388 81 349 43 282 43 C216 43 154 75 94 215 L48 213 L61 -12 L101 -12 L128 23 C169 3 222 -15 290 -15 C436 -15 533 72 533 198 L533 198 Z " />
<glyph glyph-name="T" unicode="T" horiz-adv-x="714" d="M690 394 L662 637 L52 637 L24 394 L55 389 L132 492 C180 557 203 581 250 584 L267 585 L267 61 L177 37 L177 0 L537 0 L537 37 L447 61 L447 585 L463 584 C511 580 531 561 582 492 L659 389 L690 394 Z " />
<glyph glyph-name="U" unicode="U" horiz-adv-x="759" d="M575 567 L575 224 C575 129 524 66 432 66 C338 66 285 118 285 230 L285 576 L372 600 L372 637 L19 637 L19 600 L105 576 L105 237 C105 62 208 -15 398 -15 C566 -15 663 76 663 226 L663 567 L741 600 L741 637 L503 637 L503 600 L575 567 Z " />
<glyph glyph-name="V" unicode="V" horiz-adv-x="732" d="M663 556 L734 600 L734 637 L492 637 L492 600 L569 561 L429 180 L281 576 L370 600 L370 637 L3 637 L3 600 L83 571 L319 -6 L428 -6 L663 556 Z " />
<glyph glyph-name="W" unicode="W" horiz-adv-x="1034" d="M653 576 L720 605 L720 637 L407 637 L407 605 L468 576 L490 512 L378 207 L374 207 L275 581 L340 605 L340 637 L1 637 L1 600 L87 571 L265 -6 L370 -6 L521 397 L529 397 L666 -6 L771 -6 L961 557 L1037 600 L1037 637 L807 637 L807 605 L869 566 L773 212 L765 212 L653 576 Z " />
<glyph glyph-name="X" unicode="X" horiz-adv-x="744" d="M640 573 L725 600 L725 637 L467 637 L467 605 L531 578 L411 404 L302 585 L379 605 L379 637 L24 637 L24 600 L96 577 L294 292 L105 64 L24 37 L24 0 L278 0 L278 32 L215 59 L339 240 L456 53 L383 32 L383 0 L734 0 L734 37 L662 60 L456 351 L640 573 Z " />
<glyph glyph-name="Y" unicode="Y" horiz-adv-x="737" d="M646 567 L725 600 L725 637 L497 637 L497 605 L550 569 L433 341 L303 575 L368 605 L368 637 L22 637 L22 600 L108 565 L289 253 L289 68 L200 37 L200 0 L559 0 L559 37 L469 68 L469 278 L646 567 Z " />
<glyph glyph-name="Z" unicode="Z" horiz-adv-x="660" d="M620 243 L592 247 L522 141 C487 88 458 64 407 63 L243 60 L627 607 L623 637 L79 637 L62 418 L93 413 L152 490 C201 554 230 571 282 572 L414 575 L26 30 L30 0 L604 0 L620 243 Z " />
<glyph glyph-name="bracketleft" unicode="&#x5b;" horiz-adv-x="380" d="M401 691 L401 741 L101 741 L101 -176 L401 -176 L401 -126 L234 -126 L234 691 L401 691 Z " />
<glyph glyph-name="backslash" unicode="&#x5c;" horiz-adv-x="392" d="M56 741 L-7 713 L195 254 L392 -211 L455 -183 L253 275 L56 741 Z " />
<glyph glyph-name="bracketright" unicode="&#x5d;" horiz-adv-x="380" d="M146 691 L146 -126 L-21 -126 L-21 -176 L279 -176 L279 741 L-21 741 L-21 691 L146 691 Z " />
<glyph glyph-name="asciicircum" unicode="&#x5e;" horiz-adv-x="319" d="M159 591 L287 507 L317 535 L198 728 L127 728 L1 535 L31 507 L159 591 Z " />
<glyph glyph-name="underscore" unicode="&#x5f;" horiz-adv-x="440" d="M442 60 L-2 60 L-2 0 L442 0 L442 60 Z " />
<glyph glyph-name="grave" unicode="&#x60;" horiz-adv-x="238" d="M214 532 C194 620 180 675 164 703 C139 746 95 762 58 739 C21 716 18 671 48 629 C69 600 118 558 183 511 L214 532 Z " />
<glyph glyph-name="a" unicode="a" horiz-adv-x="519" d="M448 327 C448 428 391 469 269 469 C158 469 46 425 46 354 C46 319 75 287 115 287 C158 287 181 315 181 348 C181 373 173 387 159 402 C169 404 183 405 194 405 C273 405 300 381 300 308 L300 255 C103 242 27 186 27 103 C27 30 82 -8 156 -8 C211 -8 252 16 295 55 L310 53 C320 9 350 -10 400 -10 C442 -10 483 0 518 9 L516 41 C462 46 448 70 448 107 L448 327 Z M300 85 C281 74 261 68 244 68 C198 68 173 92 173 136 C173 182 204 214 300 221 L300 85 Z " />
<glyph glyph-name="b" unicode="b" horiz-adv-x="585" d="M552 240 C552 378 472 469 375 469 C319 469 276 444 237 411 L223 413 L223 728 L199 741 L0 689 L0 659 L65 612 L65 13 C137 -5 223 -16 285 -16 C454 -16 552 105 552 240 L552 240 Z M385 209 C385 83 345 36 302 36 C265 36 243 52 223 85 L223 365 C244 370 263 373 280 373 C348 373 385 323 385 209 L385 209 Z " />
<glyph glyph-name="c" unicode="c" horiz-adv-x="491" d="M468 352 C468 416 400 469 295 469 C143 469 30 355 30 217 C30 78 141 -16 270 -16 C341 -16 404 9 464 65 L453 95 C409 81 382 76 347 76 C257 76 192 128 192 236 C192 345 247 410 319 414 C320 414 321 414 322 414 C318 396 315 379 315 362 C315 309 345 274 394 274 C438 274 468 307 468 352 L468 352 Z " />
<glyph glyph-name="d" unicode="d" horiz-adv-x="590" d="M520 101 L520 728 L496 741 L297 689 L297 659 L362 612 L362 463 C341 467 320 469 300 469 C131 469 33 348 33 213 C33 75 113 -16 210 -16 C268 -16 322 17 359 52 L360 53 L374 51 L368 -6 L392 -19 L580 24 L580 54 L520 101 Z M200 244 C200 370 240 417 283 417 C320 417 342 401 362 368 L362 88 C341 83 322 80 305 80 C237 80 200 130 200 244 L200 244 Z " />
<glyph glyph-name="e" unicode="e" horiz-adv-x="519" d="M491 221 C499 357 442 469 278 469 C153 469 30 362 30 217 C30 78 122 -16 273 -16 C340 -16 423 19 485 66 L473 91 C412 74 370 68 324 68 C233 68 188 121 185 221 L491 221 Z M186 260 C189 365 222 422 271 422 C322 422 345 376 345 271 L186 260 Z " />
<glyph glyph-name="f" unicode="f" horiz-adv-x="377" d="M377 381 L377 455 L252 455 L252 519 C252 616 268 659 306 683 C328 614 364 584 409 584 C448 584 476 610 476 652 C476 698 432 741 352 741 C298 741 244 727 199 699 C130 656 94 592 94 493 L94 458 L4 413 L4 381 L94 381 L94 58 L34 34 L34 0 L327 0 L327 34 L252 58 L252 381 L377 381 Z " />
<glyph glyph-name="g" unicode="g" horiz-adv-x="533" d="M457 314 C457 346 450 365 438 387 L440 396 L517 381 L537 381 L537 469 L477 469 L408 424 C369 450 328 469 251 469 C127 469 37 411 37 320 C37 262 76 216 133 191 L133 186 C70 129 42 91 42 56 C42 30 57 1 97 -12 L98 -23 C29 -49 3 -75 3 -110 C3 -167 72 -207 233 -207 C398 -207 513 -128 513 -21 C513 56 457 96 351 98 L225 100 C179 101 164 116 164 138 C164 146 168 164 175 177 C192 173 213 170 251 170 C382 170 457 236 457 314 L457 314 Z M317 326 C317 245 291 210 251 210 C205 210 176 233 176 320 C176 402 205 430 245 430 C291 430 317 398 317 326 L317 326 Z M414 -81 C414 -126 346 -161 268 -161 C163 -161 126 -130 126 -80 C126 -58 129 -41 135 -24 L299 -25 C382 -26 414 -42 414 -81 L414 -81 Z " />
<glyph glyph-name="h" unicode="h" horiz-adv-x="596" d="M375 281 L375 58 L329 34 L329 0 L593 0 L593 34 L533 58 L533 333 C533 415 488 469 405 469 C349 469 294 439 247 398 L233 400 L233 728 L209 741 L10 689 L10 659 L75 612 L75 58 L15 34 L15 0 L279 0 L279 34 L233 58 L233 350 C263 363 277 368 308 368 C358 368 375 334 375 281 L375 281 Z " />
<glyph glyph-name="i" unicode="i" horiz-adv-x="309" d="M63 640 C63 587 104 548 157 548 C214 548 255 594 255 646 C255 699 216 739 161 739 C105 739 63 692 63 640 L63 640 Z M80 353 L80 58 L17 34 L17 0 L298 0 L298 34 L238 58 L238 459 L214 472 L21 430 L21 400 L80 353 Z " />
<glyph glyph-name="j" unicode="j" horiz-adv-x="298" d="M58 640 C58 587 99 548 152 548 C209 548 250 594 250 646 C250 699 211 739 156 739 C100 739 58 692 58 640 L58 640 Z M233 40 L233 459 L209 472 L16 430 L16 400 L75 353 L75 -35 C75 -105 70 -135 35 -154 C21 -97 -7 -62 -52 -62 C-90 -62 -116 -89 -116 -124 C-116 -164 -75 -206 6 -206 C84 -206 141 -188 184 -143 C219 -107 233 -65 233 40 L233 40 Z " />
<glyph glyph-name="k" unicode="k" horiz-adv-x="578" d="M361 282 L494 396 L554 420 L554 454 L328 454 L328 425 L383 392 L266 259 L233 259 L233 728 L209 741 L10 689 L10 659 L75 612 L75 58 L15 34 L15 0 L277 0 L277 34 L233 58 L233 196 L262 196 L369 47 L336 29 L336 0 L577 0 L577 34 L533 55 L361 282 Z " />
<glyph glyph-name="l" unicode="l" horiz-adv-x="304" d="M233 58 L233 728 L209 741 L11 689 L11 659 L75 612 L75 58 L12 34 L12 0 L293 0 L293 34 L233 58 Z " />
<glyph glyph-name="m" unicode="m" horiz-adv-x="883" d="M664 281 L664 58 L624 34 L624 0 L880 0 L880 34 L820 58 L820 333 C820 415 780 469 697 469 C641 469 591 442 533 389 L519 391 C506 434 476 469 405 469 C349 469 298 442 237 386 L223 388 L230 459 L206 472 L20 430 L20 400 L80 353 L80 58 L20 34 L20 0 L282 0 L282 34 L236 58 L236 350 C266 363 277 368 308 368 C358 368 372 334 372 281 L372 58 L332 34 L332 0 L574 0 L574 34 L528 58 L528 350 C558 363 569 368 600 368 C650 368 664 334 664 281 L664 281 Z " />
<glyph glyph-name="n" unicode="n" horiz-adv-x="601" d="M538 333 C538 415 493 469 410 469 C354 469 300 442 239 386 L225 388 L232 459 L208 472 L20 430 L20 400 L80 353 L80 58 L20 34 L20 0 L284 0 L284 34 L238 58 L238 350 C268 363 282 368 313 368 C363 368 380 334 380 281 L380 58 L334 34 L334 0 L598 0 L598 34 L538 58 L538 333 Z " />
<glyph glyph-name="o" unicode="o" horiz-adv-x="570" d="M540 227 C540 355 462 469 291 469 C121 469 30 347 30 227 C30 98 108 -16 279 -16 C450 -16 540 107 540 227 L540 227 Z M373 227 C373 114 347 37 285 37 C223 37 197 114 197 227 C197 340 223 417 285 417 C347 417 373 340 373 227 L373 227 Z " />
<glyph glyph-name="p" unicode="p" horiz-adv-x="590" d="M557 240 C557 378 477 469 380 469 C321 469 267 435 230 400 L216 402 L222 459 L198 472 L10 429 L10 399 L70 352 L70 -150 L10 -174 L10 -207 L298 -207 L298 -174 L228 -150 L228 -10 C249 -14 270 -16 290 -16 C459 -16 557 105 557 240 L557 240 Z M390 209 C390 83 350 36 307 36 C270 36 248 52 228 85 L228 365 C249 370 268 373 285 373 C353 373 390 323 390 209 L390 209 Z " />
<glyph glyph-name="q" unicode="q" horiz-adv-x="585" d="M580 -207 L580 -174 L520 -150 L520 488 L485 496 L434 449 C384 463 341 469 300 469 C131 469 33 348 33 213 C33 75 113 -16 210 -16 C265 -16 308 9 347 41 L348 42 L362 40 L362 -150 L293 -174 L293 -207 L580 -207 Z M305 80 C237 80 200 130 200 244 C200 370 240 417 283 417 C320 417 342 401 362 368 L362 88 C341 83 322 80 305 80 L305 80 Z " />
<glyph glyph-name="r" unicode="r" horiz-adv-x="478" d="M466 382 C466 436 430 470 380 470 C314 470 272 422 233 355 L219 357 L232 459 L208 472 L20 430 L20 400 L80 353 L80 58 L20 34 L20 0 L307 0 L307 34 L238 58 L238 307 C259 328 274 339 305 352 C317 318 344 291 384 291 C431 291 466 332 466 382 L466 382 Z " />
<glyph glyph-name="s" unicode="s" horiz-adv-x="445" d="M415 146 C415 225 359 256 258 293 C189 318 165 333 165 369 C165 398 186 422 227 422 C268 422 297 399 349 323 L384 327 L381 451 C348 461 308 469 241 469 C113 469 40 400 40 320 C40 235 103 204 177 175 C258 143 289 126 289 86 C289 50 261 31 222 31 C175 31 141 57 74 150 L39 148 L42 11 C88 -7 140 -16 214 -16 C328 -16 415 46 415 146 L415 146 Z " />
<glyph glyph-name="t" unicode="t" horiz-adv-x="403" d="M394 29 L392 67 C374 66 355 65 339 65 C307 65 286 68 266 82 C246 96 239 118 239 163 L239 378 L391 378 L391 454 L239 454 L239 601 L196 601 L108 491 L4 408 L4 378 L81 378 L81 105 C81 22 124 -16 212 -16 C277 -16 360 8 394 29 L394 29 Z " />
<glyph glyph-name="u" unicode="u" horiz-adv-x="596" d="M521 101 L521 459 L497 472 L304 430 L304 400 L363 353 L363 104 C333 91 319 86 288 86 C238 86 221 120 221 173 L221 459 L197 472 L4 430 L4 400 L63 353 L63 121 C63 39 108 -15 191 -15 C247 -15 301 12 362 68 L376 66 L369 -5 L393 -18 L581 24 L581 54 L521 101 Z " />
<glyph glyph-name="v" unicode="v" horiz-adv-x="558" d="M228 397 L288 423 L288 454 L-7 454 L-7 420 L53 394 L229 -11 L328 -11 L504 385 L567 420 L567 454 L363 454 L363 423 L416 390 L372 259 L328 147 L324 147 L228 397 Z " />
<glyph glyph-name="w" unicode="w" horiz-adv-x="822" d="M508 399 L564 425 L564 454 L308 454 L308 425 L356 399 L388 317 L307 144 L302 144 L221 399 L265 425 L265 454 L-1 454 L-1 420 L59 394 L218 -11 L293 -11 L418 240 L517 -11 L592 -11 L768 385 L833 420 L833 454 L625 454 L625 425 L677 392 L591 149 L586 149 L508 399 Z " />
<glyph glyph-name="x" unicode="x" horiz-adv-x="545" d="M305 282 L231 405 L283 425 L283 454 L4 454 L4 420 L59 400 L199 214 L69 61 L10 34 L10 0 L204 0 L204 29 L156 51 L239 173 L316 50 L261 29 L261 0 L543 0 L543 34 L488 55 L343 243 L468 393 L531 420 L531 454 L334 454 L334 425 L380 402 L305 282 Z " />
<glyph glyph-name="y" unicode="y" horiz-adv-x="553" d="M500 385 L561 420 L561 454 L361 454 L361 423 L415 390 L329 148 L324 148 L227 394 L289 423 L289 454 L-7 454 L-7 420 L53 394 L250 -38 L239 -57 C224 -83 208 -104 185 -124 C164 -87 138 -64 101 -64 C61 -64 29 -93 29 -132 C29 -175 66 -207 130 -207 C216 -207 271 -160 326 -30 L500 385 Z " />
<glyph glyph-name="z" unicode="z" horiz-adv-x="501" d="M487 426 L478 454 L49 454 L40 274 L78 268 L161 396 L300 396 L13 29 L22 0 L464 0 L476 180 L438 186 L347 58 L200 58 L487 426 Z " />
<glyph glyph-name="braceleft" unicode="&#x7b;" horiz-adv-x="405" d="M289 460 L289 543 C289 648 318 679 412 700 L412 741 C213 730 146 679 146 552 L146 452 C146 354 113 323 16 312 L16 259 C113 248 146 217 146 119 L146 13 C146 -114 213 -165 412 -176 L412 -135 C318 -114 289 -83 289 22 L289 111 C289 218 243 262 151 279 L151 291 C243 308 289 353 289 460 L289 460 Z " />
<glyph glyph-name="bar" unicode="&#x7c;" horiz-adv-x="300" d="M186 -241 L183 230 L186 701 L114 701 L117 230 L114 -241 L186 -241 Z " />
<glyph glyph-name="braceright" unicode="&#x7d;" horiz-adv-x="405" d="M259 452 L259 552 C259 679 192 730 -7 741 L-7 700 C87 679 116 648 116 543 L116 460 C116 353 162 308 254 291 L254 279 C162 262 116 218 116 111 L116 22 C116 -83 87 -114 -7 -135 L-7 -176 C192 -165 259 -114 259 13 L259 119 C259 217 292 248 389 259 L389 312 C292 323 259 354 259 452 L259 452 Z " />
<glyph glyph-name="asciitilde" unicode="&#x7e;" horiz-adv-x="431" d="M142 405 C76 405 48 356 37 237 L84 231 C99 272 110 288 132 288 C175 288 231 238 289 238 C355 238 383 287 394 406 L347 412 C332 371 321 355 299 355 C256 355 200 405 142 405 L142 405 Z " />
<glyph glyph-name="nbspace" unicode="&#xa0;" horiz-adv-x="105" d="" />
<glyph glyph-name="exclamdown" unicode="&#xa1;" horiz-adv-x="298" d="M242 348 C242 398 199 431 149 431 C99 431 56 398 56 348 C56 298 99 266 149 266 C199 266 242 298 242 348 L242 348 Z M126 206 C92 66 55 -77 55 -137 C55 -195 86 -236 149 -236 C212 -236 243 -195 243 -137 C243 -77 205 66 172 206 L126 206 Z " />
<glyph glyph-name="cent" unicode="&#xa2;" horiz-adv-x="510" d="M283 77 L291 235 L301 405 C308 406 331 406 342 405 C326 323 348 272 409 272 C449 272 476 302 476 346 C476 403 410 456 309 460 L314 542 L261 545 L256 457 C124 438 36 332 36 213 C36 89 128 5 229 -13 L223 -111 L277 -114 L282 -16 C363 -12 422 23 473 71 L458 100 C416 81 373 70 342 70 C320 70 300 73 283 77 L283 77 Z M180 233 C180 309 202 368 257 393 L248 237 L240 97 C202 122 180 167 180 233 L180 233 Z " />
<glyph glyph-name="sterling" unicode="&#xa3;" horiz-adv-x="582" d="M461 346 L315 346 C302 385 284 423 284 474 C284 525 308 568 352 576 C368 512 402 465 459 465 C506 465 527 501 527 535 C527 576 481 628 366 628 C240 628 123 550 123 432 C123 403 132 375 142 346 L32 346 L32 279 L166 279 C173 258 177 237 177 215 C177 185 172 159 158 131 C67 140 17 101 17 49 C17 11 47 -15 91 -15 C137 -15 173 18 204 67 C267 18 321 -15 391 -15 C489 -15 535 57 539 197 L497 199 C483 137 462 113 406 113 C351 113 289 121 224 114 L221 125 C296 162 331 200 331 265 C331 270 331 274 330 279 L461 279 L461 346 Z " />
<glyph glyph-name="currency" unicode="&#xa4;" horiz-adv-x="616" d="M98 331 C97 316 96 301 96 286 C96 279 96 271 97 264 L22 264 L22 204 L104 204 C133 71 232 -15 375 -15 C462 -15 535 30 581 87 L566 115 C525 97 489 88 444 88 C367 88 303 122 271 204 L484 204 L484 264 L255 264 C251 284 249 319 249 329 C249 330 249 330 249 331 L484 331 L484 391 L252 391 C267 532 346 575 396 575 C405 575 413 574 420 571 C421 476 462 447 511 447 C545 447 581 472 581 513 C581 586 510 628 405 628 C251 628 144 531 108 391 L22 391 L22 331 L98 331 Z " />
<glyph glyph-name="yen" unicode="&#xa5;" horiz-adv-x="661" d="M77 323 L77 268 L250 268 L250 191 L77 191 L77 136 L250 136 L250 68 L148 37 L148 0 L511 0 L511 37 L408 68 L408 136 L581 136 L581 191 L408 191 L408 268 L581 268 L581 323 L426 323 L572 536 L651 575 L651 612 L411 612 L411 575 L481 541 L371 351 L265 547 L349 575 L349 612 L9 612 L9 575 L84 540 L227 323 L77 323 Z " />
<glyph glyph-name="brokenbar" unicode="&#xa6;" horiz-adv-x="300" d="M186 289 L183 495 L186 701 L114 701 L117 495 L114 289 L186 289 Z M186 -241 L183 -35 L186 171 L114 171 L117 -35 L114 -241 L186 -241 Z " />
<glyph glyph-name="section" unicode="&#xa7;" horiz-adv-x="562" d="M514 175 C514 358 371 463 178 524 C199 586 244 624 304 624 C334 624 352 620 376 607 C374 597 371 589 371 576 C371 527 400 500 444 500 C479 500 507 525 507 565 C507 625 449 671 317 671 C148 671 37 558 37 398 C37 215 180 110 373 49 C352 -13 307 -51 247 -51 C217 -51 199 -47 175 -34 C177 -24 180 -16 180 -3 C180 46 151 73 107 73 C72 73 44 48 44 8 C44 -52 102 -98 234 -98 C403 -98 514 15 514 175 L514 175 Z M166 442 C166 455 167 468 168 480 C336 360 385 252 385 131 C385 118 384 105 383 93 C215 213 166 321 166 442 L166 442 Z " />
<glyph glyph-name="dieresis" unicode="&#xa8;" horiz-adv-x="361" d="M283 523 C333 523 370 566 370 611 C370 658 337 692 291 692 C241 692 204 649 204 604 C204 558 237 523 283 523 L283 523 Z M62 523 C111 523 148 566 148 611 C148 658 116 692 69 692 C20 692 -17 649 -17 604 C-17 558 15 523 62 523 L62 523 Z " />
<glyph glyph-name="copyright" unicode="&#xa9;" horiz-adv-x="788" d="M745 320 C745 513 588 670 394 670 C201 670 43 513 43 320 C43 126 201 -31 394 -31 C588 -31 745 126 745 320 L745 320 Z M702 320 C702 149 564 7 394 7 C224 7 87 149 87 320 C87 491 224 632 394 632 C564 632 702 491 702 320 L702 320 Z M316 329 C316 427 355 472 405 472 C445 472 475 450 513 366 L548 367 L540 519 L510 519 L494 499 C470 509 438 516 406 516 C281 516 199 427 199 319 C199 195 287 130 412 130 C458 130 504 139 542 154 L552 268 L524 271 L460 180 C449 177 441 176 428 176 C365 176 316 229 316 329 L316 329 Z " />
<glyph glyph-name="ordfeminine" unicode="&#xaa;" horiz-adv-x="420" d="M55 563 C55 539 73 519 103 519 C132 519 149 539 149 562 C149 579 144 592 134 605 C141 605 147 605 156 605 C225 605 237 578 237 540 L237 497 C103 497 38 455 38 391 C38 348 75 311 133 311 C174 311 209 327 235 352 L242 351 C251 319 277 310 306 310 C337 310 362 315 393 323 L392 349 C344 353 340 372 340 400 L340 556 C340 619 296 652 229 652 C158 652 55 621 55 563 L55 563 Z M146 409 C146 448 177 469 237 469 L237 377 C226 369 208 365 194 365 C169 365 146 378 146 409 L146 409 Z " />
<glyph glyph-name="guillemotleft" unicode="&#xab;" horiz-adv-x="553" d="M404 224 L497 402 L464 428 L257 239 L257 209 L464 20 L497 45 L404 224 Z M177 224 L270 402 L237 428 L30 239 L30 209 L237 20 L270 45 L177 224 Z " />
<glyph glyph-name="logicalnot" unicode="&#xac;" horiz-adv-x="520" d="M463 272 L463 342 L58 342 L58 272 L463 272 Z " />
<glyph glyph-name="registered" unicode="&#xae;" horiz-adv-x="418" d="M209 287 C320 287 399 364 399 475 C399 586 320 664 209 664 C98 664 19 586 19 475 C19 364 98 287 209 287 L209 287 Z M209 312 C113 312 47 379 47 475 C47 571 113 639 209 639 C305 639 371 571 371 475 C371 379 305 312 209 312 L209 312 Z M300 527 C300 557 274 576 222 576 L106 576 L106 559 L135 552 L135 406 L106 399 L106 382 L215 382 L215 399 L188 406 L188 463 L200 463 C216 463 225 457 230 443 L238 418 C247 391 254 382 280 382 L322 382 L322 399 C314 400 309 402 304 407 C300 411 296 422 292 436 C286 458 276 466 245 470 L245 479 C285 486 300 502 300 527 L300 527 Z M244 519 C244 499 231 485 206 485 L187 485 L187 553 L204 552 C230 550 244 543 244 519 L244 519 Z " />
<glyph glyph-name="macron" unicode="&#xaf;" horiz-adv-x="320" d="M318 641 L2 641 L2 539 L318 539 L318 641 Z " />
<glyph glyph-name="degree" unicode="&#xb0;" horiz-adv-x="414" d="M376 493 C376 577 324 652 211 652 C97 652 38 572 38 492 C38 408 92 332 204 332 C318 332 376 413 376 493 L376 493 Z M273 493 C273 418 252 373 208 373 C167 373 141 417 141 491 C141 566 165 611 206 611 C249 611 273 567 273 493 L273 493 Z " />
<glyph glyph-name="plusminus" unicode="&#xb1;" horiz-adv-x="500" d="M25 -200 L475 -200 L475 800 L25 800 L25 -200 Z " />
<glyph glyph-name="twosuperior" unicode="&#xb2;" horiz-adv-x="390" d="M108 279 C267 371 338 430 338 523 C338 586 292 646 209 646 C116 646 63 585 29 499 L56 485 C87 530 123 558 161 558 C199 558 221 535 221 500 C221 463 207 428 147 368 C117 338 80 306 29 268 L42 173 L333 173 L358 329 L335 334 L282 265 L113 263 L108 279 Z " />
<glyph glyph-name="threesuperior" unicode="&#xb3;" horiz-adv-x="390" d="M107 376 C210 357 243 325 243 276 C243 232 218 203 174 203 C159 203 150 205 136 211 C145 261 129 302 81 302 C52 302 22 279 22 244 C22 191 80 158 181 158 C281 158 360 215 360 305 C360 373 314 410 241 427 L241 441 C314 464 343 494 343 545 C343 603 290 646 207 646 C132 646 69 604 35 538 L62 517 C96 553 126 570 162 570 C203 570 225 546 225 520 C225 484 210 459 107 424 L107 376 Z " />
<glyph glyph-name="acute" unicode="&#xb4;" horiz-adv-x="238" d="M188 739 C151 762 107 746 82 703 C66 675 52 620 32 532 L63 511 C128 558 177 600 198 629 C228 671 225 715 188 739 L188 739 Z " />
<glyph glyph-name="mu" unicode="&#xb5;" horiz-adv-x="520" d="M304 305 L442 446 L395 491 L260 351 L125 491 L78 446 L216 305 L78 164 L125 119 L260 259 L395 119 L442 164 L304 305 Z " />
<glyph glyph-name="paragraph" unicode="&#xb6;" horiz-adv-x="675" d="M326 177 L326 -100 L404 -100 L404 548 L487 548 L487 -100 L565 -100 L565 544 L650 580 L650 617 L331 617 C146 617 37 537 37 397 C37 248 159 181 326 177 L326 177 Z M326 249 C237 257 196 312 196 404 C196 496 241 549 326 549 L326 249 Z " />
<glyph glyph-name="periodcentered" unicode="&#xb7;" horiz-adv-x="250" d="M216 318 C216 368 175 409 125 409 C75 409 34 368 34 318 C34 268 75 227 125 227 C175 227 216 268 216 318 L216 318 Z " />
<glyph glyph-name="cedilla" unicode="&#xb8;" horiz-adv-x="282" d="M192 -162 C192 -109 151 -77 97 -68 L205 21 L182 47 L-7 -110 L13 -130 C24 -128 30 -127 40 -127 C80 -127 108 -146 108 -185 C108 -225 79 -239 54 -239 C39 -239 34 -238 25 -234 C27 -227 28 -221 28 -214 C28 -195 15 -175 -8 -175 C-30 -175 -44 -193 -44 -213 C-44 -250 2 -270 64 -270 C138 -270 192 -226 192 -162 L192 -162 Z " />
<glyph glyph-name="onesuperior" unicode="&#xb9;" horiz-adv-x="390" d="M271 234 L271 638 L246 652 L54 627 L54 603 L144 563 L144 234 L49 198 L49 173 L363 173 L363 198 L271 234 Z " />
<glyph glyph-name="ordmasculine" unicode="&#xba;" horiz-adv-x="420" d="M391 481 C391 582 322 652 214 652 C106 652 29 577 29 482 C29 381 97 311 205 311 C313 311 391 386 391 481 L391 481 Z M275 481 C275 403 256 351 209 351 C161 351 144 404 144 483 C144 560 163 613 210 613 C257 613 275 560 275 481 L275 481 Z " />
<glyph glyph-name="guillemotright" unicode="&#xbb;" horiz-adv-x="553" d="M523 209 L523 239 L316 428 L283 403 L376 224 L283 46 L316 20 L523 209 Z M296 209 L296 239 L89 428 L56 403 L149 224 L56 46 L89 20 L296 209 Z " />
<glyph glyph-name="onequarter" unicode="&#xbc;" horiz-adv-x="1040" d="M271 234 L271 638 L246 652 L54 627 L54 603 L144 563 L144 234 L49 198 L49 173 L363 173 L363 198 L271 234 Z M822 630 L766 671 L514 292 L255 -81 L311 -122 L563 257 L822 630 Z M626 120 L645 52 L807 52 L807 -18 L731 -47 L731 -77 L982 -77 L982 -47 L926 -18 L926 50 L997 50 L997 121 L926 121 L926 386 L794 393 L626 120 Z M812 117 L691 117 L791 303 L812 303 L812 117 Z " />
<glyph glyph-name="onehalf" unicode="&#xbd;" horiz-adv-x="1040" d="M271 234 L271 638 L246 652 L54 627 L54 603 L144 563 L144 234 L49 198 L49 173 L363 173 L363 198 L271 234 Z M817 630 L761 671 L509 292 L250 -81 L306 -122 L558 257 L817 630 Z M748 29 C907 121 978 180 978 273 C978 336 932 396 849 396 C756 396 703 335 669 249 L696 235 C727 280 763 308 801 308 C839 308 861 285 861 250 C861 213 847 178 787 118 C757 88 720 56 669 18 L682 -77 L973 -77 L998 79 L975 84 L922 15 L753 13 L748 29 Z " />
<glyph glyph-name="threequarters" unicode="&#xbe;" horiz-adv-x="1040" d="M137 376 C240 357 273 325 273 276 C273 232 248 203 204 203 C189 203 180 205 166 211 C175 261 159 302 111 302 C82 302 52 279 52 244 C52 191 110 158 211 158 C311 158 390 215 390 305 C390 373 344 410 271 427 L271 441 C344 464 373 494 373 545 C373 603 320 646 237 646 C162 646 99 604 65 538 L92 517 C126 553 156 570 192 570 C233 570 255 546 255 520 C255 484 240 459 137 424 L137 376 Z M827 630 L771 671 L519 292 L260 -81 L316 -122 L568 257 L827 630 Z M626 120 L645 52 L807 52 L807 -18 L731 -47 L731 -77 L982 -77 L982 -47 L926 -18 L926 50 L997 50 L997 121 L926 121 L926 386 L794 393 L626 120 Z M812 117 L691 117 L791 303 L812 303 L812 117 Z " />
<glyph glyph-name="questiondown" unicode="&#xbf;" horiz-adv-x="457" d="M182 348 C182 298 225 266 275 266 C325 266 368 298 368 348 C368 398 325 431 275 431 C225 431 182 398 182 348 L182 348 Z M25 -55 C25 -160 125 -236 251 -236 C388 -236 464 -174 464 -107 C464 -61 428 -26 381 -26 C336 -26 304 -64 304 -109 C304 -130 308 -151 314 -167 C302 -171 289 -175 265 -175 C214 -175 178 -142 178 -97 C178 -58 196 -39 253 -1 C312 38 341 69 341 107 C341 132 332 159 308 206 L242 206 C242 171 230 150 147 105 C69 63 25 24 25 -55 L25 -55 Z " />
<glyph glyph-name="Agrave" unicode="&#xc0;" horiz-adv-x="731" d="M394 718 C374 806 360 861 344 889 C319 932 275 948 238 925 C201 902 198 857 228 815 C249 786 298 744 363 697 L394 718 Z M651 66 L433 643 L301 643 L74 70 L-2 37 L-2 0 L222 0 L222 32 L160 62 L206 195 L419 195 L468 56 L394 32 L394 0 L728 0 L728 37 L651 66 Z M399 251 L225 251 L306 488 L316 488 L399 251 Z " />
<glyph glyph-name="Aacute" unicode="&#xc1;" horiz-adv-x="731" d="M478 925 C441 948 397 932 372 889 C356 861 342 806 322 718 L353 697 C418 744 467 786 488 815 C518 857 515 901 478 925 L478 925 Z M651 66 L433 643 L301 643 L74 70 L-2 37 L-2 0 L222 0 L222 32 L160 62 L206 195 L419 195 L468 56 L394 32 L394 0 L728 0 L728 37 L651 66 Z M399 251 L225 251 L306 488 L316 488 L399 251 Z " />
<glyph glyph-name="Acircumflex" unicode="&#xc2;" horiz-adv-x="731" d="M361 777 L489 678 L519 706 L405 904 L324 904 L203 706 L233 678 L361 777 Z M651 66 L433 643 L301 643 L74 70 L-2 37 L-2 0 L222 0 L222 32 L160 62 L206 195 L419 195 L468 56 L394 32 L394 0 L728 0 L728 37 L651 66 Z M399 251 L225 251 L306 488 L316 488 L399 251 Z " />
<glyph glyph-name="Atilde" unicode="&#xc3;" horiz-adv-x="731" d="M190 710 L237 704 C252 745 263 761 285 761 C328 761 384 711 442 711 C508 711 536 760 547 879 L500 885 C485 844 474 828 452 828 C409 828 353 878 295 878 C229 878 201 829 190 710 L190 710 Z M651 66 L433 643 L301 643 L74 70 L-2 37 L-2 0 L222 0 L222 32 L160 62 L206 195 L419 195 L468 56 L394 32 L394 0 L728 0 L728 37 L651 66 Z M399 251 L225 251 L306 488 L316 488 L399 251 Z " />
<glyph glyph-name="Adieresis" unicode="&#xc4;" horiz-adv-x="731" d="M481 709 C531 709 568 752 568 797 C568 844 535 878 489 878 C439 878 402 835 402 790 C402 744 435 709 481 709 L481 709 Z M260 709 C309 709 346 752 346 797 C346 844 314 878 267 878 C218 878 181 835 181 790 C181 744 213 709 260 709 L260 709 Z M651 66 L433 643 L301 643 L74 70 L-2 37 L-2 0 L222 0 L222 32 L160 62 L206 195 L419 195 L468 56 L394 32 L394 0 L728 0 L728 37 L651 66 Z M399 251 L225 251 L306 488 L316 488 L399 251 Z " />
<glyph glyph-name="Aring" unicode="&#xc5;" horiz-adv-x="731" d="M651 66 L440 625 C471 645 489 678 489 714 C489 778 441 822 367 822 C292 822 239 774 239 713 C239 672 259 639 292 620 L74 70 L-2 37 L-2 0 L222 0 L222 32 L160 62 L206 195 L419 195 L468 56 L394 32 L394 0 L728 0 L728 37 L651 66 Z M313 712 C313 761 335 788 363 788 C393 788 415 762 415 714 C415 665 395 638 365 638 C337 638 313 664 313 712 L313 712 Z M306 488 L316 488 L399 251 L225 251 L306 488 Z " />
<glyph glyph-name="AE" unicode="&#xc6;" horiz-adv-x="1009" d="M233 220 L452 220 L452 61 L365 37 L365 0 L958 0 L977 207 L948 211 L876 127 C841 86 815 64 755 61 L632 55 L632 290 L668 290 C717 290 729 278 754 212 L765 183 L797 183 L797 454 L766 454 L754 422 C728 353 718 344 668 344 L632 344 L632 583 L723 579 C790 576 813 558 852 507 L922 417 L951 422 L937 637 L252 637 L252 600 L350 576 L45 70 L-28 37 L-28 0 L215 0 L215 32 L148 67 L233 220 Z M452 276 L264 276 L432 578 L452 578 L452 276 Z " />
<glyph glyph-name="Ccedilla" unicode="&#xc7;" horiz-adv-x="705" d="M240 329 C240 509 307 594 397 594 C472 594 526 548 597 391 L642 393 L628 655 L594 655 L560 621 C518 640 459 652 402 652 C188 652 45 497 45 312 C45 102 190 -10 390 -15 L275 -110 L295 -130 C306 -128 312 -127 322 -127 C362 -127 390 -146 390 -185 C390 -225 361 -239 336 -239 C321 -239 316 -238 307 -234 C309 -227 310 -221 310 -214 C310 -195 297 -175 274 -175 C252 -175 238 -193 238 -213 C238 -250 284 -270 346 -270 C420 -270 474 -226 474 -162 C474 -109 433 -77 379 -68 L445 -14 C517 -10 577 3 632 25 L653 211 L618 215 L499 57 C474 50 463 48 439 48 C322 48 240 147 240 329 L240 329 Z " />
<glyph glyph-name="Egrave" unicode="&#xc8;" horiz-adv-x="672" d="M398 718 C378 806 364 861 348 889 C323 932 279 948 242 925 C205 902 202 857 232 815 C253 786 302 744 367 697 L398 718 Z M600 637 L28 637 L28 600 L115 576 L115 61 L28 37 L28 0 L621 0 L640 207 L611 211 L539 127 C504 86 478 64 418 61 L295 55 L295 290 L331 290 C380 290 392 278 417 212 L428 183 L460 183 L460 454 L429 454 L417 422 C391 353 381 344 331 344 L295 344 L295 583 L386 579 C453 576 476 558 515 507 L585 417 L614 422 L600 637 Z " />
<glyph glyph-name="Eacute" unicode="&#xc9;" horiz-adv-x="672" d="M447 925 C410 948 366 932 341 889 C325 861 311 806 291 718 L322 697 C387 744 436 786 457 815 C487 857 484 901 447 925 L447 925 Z M600 637 L28 637 L28 600 L115 576 L115 61 L28 37 L28 0 L621 0 L640 207 L611 211 L539 127 C504 86 478 64 418 61 L295 55 L295 290 L331 290 C380 290 392 278 417 212 L428 183 L460 183 L460 454 L429 454 L417 422 C391 353 381 344 331 344 L295 344 L295 583 L386 579 C453 576 476 558 515 507 L585 417 L614 422 L600 637 Z " />
<glyph glyph-name="Ecircumflex" unicode="&#xca;" horiz-adv-x="672" d="M346 795 L474 696 L504 724 L390 922 L309 922 L188 724 L218 696 L346 795 Z M600 637 L28 637 L28 600 L115 576 L115 61 L28 37 L28 0 L621 0 L640 207 L611 211 L539 127 C504 86 478 64 418 61 L295 55 L295 290 L331 290 C380 290 392 278 417 212 L428 183 L460 183 L460 454 L429 454 L417 422 C391 353 381 344 331 344 L295 344 L295 583 L386 579 C453 576 476 558 515 507 L585 417 L614 422 L600 637 Z " />
<glyph glyph-name="Edieresis" unicode="&#xcb;" horiz-adv-x="672" d="M450 709 C500 709 537 752 537 797 C537 844 504 878 458 878 C408 878 371 835 371 790 C371 744 404 709 450 709 L450 709 Z M229 709 C278 709 315 752 315 797 C315 844 283 878 236 878 C187 878 150 835 150 790 C150 744 182 709 229 709 L229 709 Z M600 637 L28 637 L28 600 L115 576 L115 61 L28 37 L28 0 L621 0 L640 207 L611 211 L539 127 C504 86 478 64 418 61 L295 55 L295 290 L331 290 C380 290 392 278 417 212 L428 183 L460 183 L460 454 L429 454 L417 422 C391 353 381 344 331 344 L295 344 L295 583 L386 579 C453 576 476 558 515 507 L585 417 L614 422 L600 637 Z " />
<glyph glyph-name="Igrave" unicode="&#xcc;" horiz-adv-x="430" d="M273 718 C253 806 239 861 223 889 C198 932 154 948 117 925 C80 902 77 857 107 815 C128 786 177 744 242 697 L273 718 Z M305 61 L305 576 L391 600 L391 637 L38 637 L38 600 L125 576 L125 61 L38 37 L38 0 L391 0 L391 37 L305 61 Z " />
<glyph glyph-name="Iacute" unicode="&#xcd;" horiz-adv-x="430" d="M320 925 C283 948 239 932 214 889 C198 861 184 806 164 718 L195 697 C260 744 309 786 330 815 C360 857 357 901 320 925 L320 925 Z M305 61 L305 576 L391 600 L391 637 L38 637 L38 600 L125 576 L125 61 L38 37 L38 0 L391 0 L391 37 L305 61 Z " />
<glyph glyph-name="Icircumflex" unicode="&#xce;" horiz-adv-x="430" d="M217 797 L345 698 L375 726 L261 924 L180 924 L59 726 L89 698 L217 797 Z M305 61 L305 576 L391 600 L391 637 L38 637 L38 600 L125 576 L125 61 L38 37 L38 0 L391 0 L391 37 L305 61 Z " />
<glyph glyph-name="Idieresis" unicode="&#xcf;" horiz-adv-x="430" d="M325 709 C375 709 412 752 412 797 C412 844 379 878 333 878 C283 878 246 835 246 790 C246 744 279 709 325 709 L325 709 Z M104 709 C153 709 190 752 190 797 C190 844 158 878 111 878 C62 878 25 835 25 790 C25 744 57 709 104 709 L104 709 Z M305 61 L305 576 L391 600 L391 637 L38 637 L38 600 L125 576 L125 61 L38 37 L38 0 L391 0 L391 37 L305 61 Z " />
<glyph glyph-name="Eth" unicode="&#xd0;" horiz-adv-x="773" d="M728 327 C728 519 582 637 356 637 L33 637 L33 600 L122 576 L122 363 L35 363 L35 298 L122 298 L122 61 L33 37 L33 0 L349 0 C577 0 728 125 728 327 L728 327 Z M533 319 C533 126 463 65 354 59 L298 56 L298 298 L416 298 L416 363 L298 363 L298 582 L334 580 C450 573 533 504 533 319 L533 319 Z " />
<glyph glyph-name="Ntilde" unicode="&#xd1;" horiz-adv-x="795" d="M238 710 L285 704 C300 745 311 761 333 761 C376 761 432 711 490 711 C556 711 584 760 595 879 L548 885 C533 844 522 828 500 828 C457 828 401 878 343 878 C277 878 249 829 238 710 L238 710 Z M120 73 L35 37 L35 0 L291 0 L291 37 L206 73 L206 464 L218 464 L476 98 L546 -6 L685 -6 L685 564 L770 600 L770 637 L514 637 L514 600 L599 564 L599 243 L587 243 L390 533 L321 637 L41 637 L41 600 L120 567 L120 73 Z " />
<glyph glyph-name="Ograve" unicode="&#xd2;" horiz-adv-x="762" d="M407 723 C387 811 373 866 357 894 C332 937 288 953 251 930 C214 907 211 862 241 820 C262 791 311 749 376 702 L407 723 Z M717 319 C717 499 612 652 384 652 C166 652 45 499 45 319 C45 138 151 -15 378 -15 C596 -15 717 138 717 319 L717 319 Z M523 319 C523 132 471 38 388 38 C298 38 239 108 239 319 C239 529 291 600 374 600 C464 600 523 506 523 319 L523 319 Z " />
<glyph glyph-name="Oacute" unicode="&#xd3;" horiz-adv-x="762" d="M506 930 C469 953 425 937 400 894 C384 866 370 811 350 723 L381 702 C446 749 495 791 516 820 C546 862 543 906 506 930 L506 930 Z M717 319 C717 499 612 652 384 652 C166 652 45 499 45 319 C45 138 151 -15 378 -15 C596 -15 717 138 717 319 L717 319 Z M523 319 C523 132 471 38 388 38 C298 38 239 108 239 319 C239 529 291 600 374 600 C464 600 523 506 523 319 L523 319 Z " />
<glyph glyph-name="Ocircumflex" unicode="&#xd4;" horiz-adv-x="762" d="M383 797 L511 698 L541 726 L427 924 L346 924 L225 726 L255 698 L383 797 Z M717 319 C717 499 612 652 384 652 C166 652 45 499 45 319 C45 138 151 -15 378 -15 C596 -15 717 138 717 319 L717 319 Z M523 319 C523 132 471 38 388 38 C298 38 239 108 239 319 C239 529 291 600 374 600 C464 600 523 506 523 319 L523 319 Z " />
<glyph glyph-name="Otilde" unicode="&#xd5;" horiz-adv-x="762" d="M206 710 L253 704 C268 745 279 761 301 761 C344 761 400 711 458 711 C524 711 552 760 563 879 L516 885 C501 844 490 828 468 828 C425 828 369 878 311 878 C245 878 217 829 206 710 L206 710 Z M717 319 C717 499 612 652 384 652 C166 652 45 499 45 319 C45 138 151 -15 378 -15 C596 -15 717 138 717 319 L717 319 Z M523 319 C523 132 471 38 388 38 C298 38 239 108 239 319 C239 529 291 600 374 600 C464 600 523 506 523 319 L523 319 Z " />
<glyph glyph-name="Odieresis" unicode="&#xd6;" horiz-adv-x="762" d="M494 709 C544 709 581 752 581 797 C581 844 548 878 502 878 C452 878 415 835 415 790 C415 744 448 709 494 709 L494 709 Z M273 709 C322 709 359 752 359 797 C359 844 327 878 280 878 C231 878 194 835 194 790 C194 744 226 709 273 709 L273 709 Z M717 319 C717 499 612 652 384 652 C166 652 45 499 45 319 C45 138 151 -15 378 -15 C596 -15 717 138 717 319 L717 319 Z M523 319 C523 132 471 38 388 38 C298 38 239 108 239 319 C239 529 291 600 374 600 C464 600 523 506 523 319 L523 319 Z " />
<glyph glyph-name="multiply" unicode="&#xd7;" horiz-adv-x="520" d="M304 305 L442 446 L395 491 L260 351 L125 491 L78 446 L216 305 L78 164 L125 119 L260 259 L395 119 L442 164 L304 305 Z " />
<glyph glyph-name="Oslash" unicode="&#xd8;" horiz-adv-x="762" d="M717 319 C717 410 686 494 628 555 L701 637 L658 669 L588 590 C535 629 466 652 384 652 C166 652 45 499 45 319 C45 227 76 142 135 80 L62 -1 L105 -32 L174 46 C227 8 296 -15 378 -15 C596 -15 717 138 717 319 L717 319 Z M245 196 C239 231 236 271 236 319 C236 529 291 600 374 600 C428 600 472 566 498 498 L245 196 Z M516 437 C522 403 526 364 526 319 C526 132 471 38 388 38 C332 38 287 65 261 134 L516 437 Z " />
<glyph glyph-name="Ugrave" unicode="&#xd9;" horiz-adv-x="759" d="M470 718 C450 806 436 861 420 889 C395 932 351 948 314 925 C277 902 274 857 304 815 C325 786 374 744 439 697 L470 718 Z M575 567 L575 224 C575 129 524 66 432 66 C338 66 285 118 285 230 L285 576 L372 600 L372 637 L19 637 L19 600 L105 576 L105 237 C105 62 208 -15 398 -15 C566 -15 663 76 663 226 L663 567 L741 600 L741 637 L503 637 L503 600 L575 567 Z " />
<glyph glyph-name="Uacute" unicode="&#xda;" horiz-adv-x="759" d="M519 925 C482 948 438 932 413 889 C397 861 383 806 363 718 L394 697 C459 744 508 786 529 815 C559 857 556 901 519 925 L519 925 Z M575 567 L575 224 C575 129 524 66 432 66 C338 66 285 118 285 230 L285 576 L372 600 L372 637 L19 637 L19 600 L105 576 L105 237 C105 62 208 -15 398 -15 C566 -15 663 76 663 226 L663 567 L741 600 L741 637 L503 637 L503 600 L575 567 Z " />
<glyph glyph-name="Ucircumflex" unicode="&#xdb;" horiz-adv-x="759" d="M412 797 L540 698 L570 726 L456 924 L375 924 L254 726 L284 698 L412 797 Z M575 567 L575 224 C575 129 524 66 432 66 C338 66 285 118 285 230 L285 576 L372 600 L372 637 L19 637 L19 600 L105 576 L105 237 C105 62 208 -15 398 -15 C566 -15 663 76 663 226 L663 567 L741 600 L741 637 L503 637 L503 600 L575 567 Z " />
<glyph glyph-name="Udieresis" unicode="&#xdc;" horiz-adv-x="759" d="M522 709 C572 709 609 752 609 797 C609 844 576 878 530 878 C480 878 443 835 443 790 C443 744 476 709 522 709 L522 709 Z M301 709 C350 709 387 752 387 797 C387 844 355 878 308 878 C259 878 222 835 222 790 C222 744 254 709 301 709 L301 709 Z M575 567 L575 224 C575 129 524 66 432 66 C338 66 285 118 285 230 L285 576 L372 600 L372 637 L19 637 L19 600 L105 576 L105 237 C105 62 208 -15 398 -15 C566 -15 663 76 663 226 L663 567 L741 600 L741 637 L503 637 L503 600 L575 567 Z " />
<glyph glyph-name="Yacute" unicode="&#xdd;" horiz-adv-x="737" d="M531 925 C494 948 450 932 425 889 C409 861 395 806 375 718 L406 697 C471 744 520 786 541 815 C571 857 568 901 531 925 L531 925 Z M646 567 L725 600 L725 637 L497 637 L497 605 L550 569 L433 341 L303 575 L368 605 L368 637 L22 637 L22 600 L108 565 L289 253 L289 68 L200 37 L200 0 L559 0 L559 37 L469 68 L469 278 L646 567 Z " />
<glyph glyph-name="Thorn" unicode="&#xde;" horiz-adv-x="666" d="M632 326 C632 447 530 513 370 513 C345 513 311 510 295 508 L295 576 L394 600 L394 637 L28 637 L28 600 L115 576 L115 61 L28 37 L28 0 L394 0 L394 37 L295 61 L295 137 C320 134 352 132 379 132 C529 132 632 193 632 326 L632 326 Z M447 326 C447 229 400 191 320 191 L295 191 L295 460 L323 458 C398 453 447 416 447 326 L447 326 Z " />
<glyph glyph-name="germandbls" unicode="&#xdf;" horiz-adv-x="684" d="M654 167 C654 267 587 328 457 392 L457 400 C524 456 570 506 570 581 C570 676 491 741 378 741 C306 741 245 720 194 677 C129 622 94 553 94 463 L94 458 L4 413 L4 381 L94 381 L94 58 L34 34 L34 0 L293 0 L293 29 L252 56 L252 548 C252 632 285 674 331 674 C381 674 414 629 414 555 C414 478 395 416 322 321 L322 299 C457 239 532 185 532 109 C532 59 504 29 468 29 C458 29 451 30 442 32 C470 86 456 150 393 150 C357 150 332 119 332 83 C332 30 374 -15 469 -15 C576 -15 654 63 654 167 L654 167 Z " />
<glyph glyph-name="agrave" unicode="&#xe0;" horiz-adv-x="519" d="M323 532 C303 620 289 675 273 703 C248 746 204 762 167 739 C130 716 127 671 157 629 C178 600 227 558 292 511 L323 532 Z M448 327 C448 428 391 469 269 469 C158 469 46 425 46 354 C46 319 75 287 115 287 C158 287 181 315 181 348 C181 373 173 387 159 402 C169 404 183 405 194 405 C273 405 300 381 300 308 L300 255 C103 242 27 186 27 103 C27 30 82 -8 156 -8 C211 -8 252 16 295 55 L310 53 C320 9 350 -10 400 -10 C442 -10 483 0 518 9 L516 41 C462 46 448 70 448 107 L448 327 Z M300 85 C281 74 261 68 244 68 C198 68 173 92 173 136 C173 182 204 214 300 221 L300 85 Z " />
<glyph glyph-name="aacute" unicode="&#xe1;" horiz-adv-x="519" d="M350 739 C313 762 269 746 244 703 C228 675 214 620 194 532 L225 511 C290 558 339 600 360 629 C390 671 387 715 350 739 L350 739 Z M448 327 C448 428 391 469 269 469 C158 469 46 425 46 354 C46 319 75 287 115 287 C158 287 181 315 181 348 C181 373 173 387 159 402 C169 404 183 405 194 405 C273 405 300 381 300 308 L300 255 C103 242 27 186 27 103 C27 30 82 -8 156 -8 C211 -8 252 16 295 55 L310 53 C320 9 350 -10 400 -10 C442 -10 483 0 518 9 L516 41 C462 46 448 70 448 107 L448 327 Z M300 85 C281 74 261 68 244 68 C198 68 173 92 173 136 C173 182 204 214 300 221 L300 85 Z " />
<glyph glyph-name="acircumflex" unicode="&#xe2;" horiz-adv-x="519" d="M260 611 L388 512 L418 540 L304 738 L223 738 L102 540 L132 512 L260 611 Z M448 327 C448 428 391 469 269 469 C158 469 46 425 46 354 C46 319 75 287 115 287 C158 287 181 315 181 348 C181 373 173 387 159 402 C169 404 183 405 194 405 C273 405 300 381 300 308 L300 255 C103 242 27 186 27 103 C27 30 82 -8 156 -8 C211 -8 252 16 295 55 L310 53 C320 9 350 -10 400 -10 C442 -10 483 0 518 9 L516 41 C462 46 448 70 448 107 L448 327 Z M300 85 C281 74 261 68 244 68 C198 68 173 92 173 136 C173 182 204 214 300 221 L300 85 Z " />
<glyph glyph-name="atilde" unicode="&#xe3;" horiz-adv-x="519" d="M82 524 L129 518 C144 559 155 575 177 575 C220 575 276 525 334 525 C400 525 428 574 439 693 L392 699 C377 658 366 642 344 642 C301 642 245 692 187 692 C121 692 93 643 82 524 L82 524 Z M448 327 C448 428 391 469 269 469 C158 469 46 425 46 354 C46 319 75 287 115 287 C158 287 181 315 181 348 C181 373 173 387 159 402 C169 404 183 405 194 405 C273 405 300 381 300 308 L300 255 C103 242 27 186 27 103 C27 30 82 -8 156 -8 C211 -8 252 16 295 55 L310 53 C320 9 350 -10 400 -10 C442 -10 483 0 518 9 L516 41 C462 46 448 70 448 107 L448 327 Z M300 85 C281 74 261 68 244 68 C198 68 173 92 173 136 C173 182 204 214 300 221 L300 85 Z " />
<glyph glyph-name="adieresis" unicode="&#xe4;" horiz-adv-x="519" d="M363 523 C413 523 450 566 450 611 C450 658 417 692 371 692 C321 692 284 649 284 604 C284 558 317 523 363 523 L363 523 Z M142 523 C191 523 228 566 228 611 C228 658 196 692 149 692 C100 692 63 649 63 604 C63 558 95 523 142 523 L142 523 Z M448 327 C448 428 391 469 269 469 C158 469 46 425 46 354 C46 319 75 287 115 287 C158 287 181 315 181 348 C181 373 173 387 159 402 C169 404 183 405 194 405 C273 405 300 381 300 308 L300 255 C103 242 27 186 27 103 C27 30 82 -8 156 -8 C211 -8 252 16 295 55 L310 53 C320 9 350 -10 400 -10 C442 -10 483 0 518 9 L516 41 C462 46 448 70 448 107 L448 327 Z M300 85 C281 74 261 68 244 68 C198 68 173 92 173 136 C173 182 204 214 300 221 L300 85 Z " />
<glyph glyph-name="aring" unicode="&#xe5;" horiz-adv-x="519" d="M381 623 C381 687 333 731 259 731 C184 731 131 683 131 622 C131 558 180 512 254 512 C329 512 381 562 381 623 L381 623 Z M448 327 C448 428 391 469 269 469 C158 469 46 425 46 354 C46 319 75 287 115 287 C158 287 181 315 181 348 C181 373 173 387 159 402 C169 404 183 405 194 405 C273 405 300 381 300 308 L300 255 C103 242 27 186 27 103 C27 30 82 -8 156 -8 C211 -8 252 16 295 55 L310 53 C320 9 350 -10 400 -10 C442 -10 483 0 518 9 L516 41 C462 46 448 70 448 107 L448 327 Z M307 623 C307 574 287 547 257 547 C229 547 205 573 205 621 C205 670 227 697 255 697 C285 697 307 671 307 623 L307 623 Z M300 85 C281 74 261 68 244 68 C198 68 173 92 173 136 C173 182 204 214 300 221 L300 85 Z " />
<glyph glyph-name="ae" unicode="&#xe6;" horiz-adv-x="789" d="M761 221 C769 357 712 469 548 469 C492 469 446 446 409 411 C386 451 341 469 272 469 C155 469 46 425 46 354 C46 319 75 287 115 287 C158 287 181 315 181 348 C181 373 173 387 159 402 C169 404 183 405 194 405 C273 405 300 381 300 308 L300 255 C103 242 27 186 27 103 C27 29 89 -8 168 -8 C237 -8 289 18 342 57 L356 57 C398 11 462 -16 543 -16 C610 -16 693 19 755 66 L743 91 C682 74 640 68 594 68 C503 68 458 121 455 221 L761 221 Z M541 422 C592 422 615 376 615 271 L456 260 C459 365 492 422 541 422 L541 422 Z M331 91 C305 77 277 68 254 68 C204 68 173 94 173 136 C173 182 204 214 300 221 C300 169 310 129 331 91 L331 91 Z " />
<glyph glyph-name="ccedilla" unicode="&#xe7;" horiz-adv-x="491" d="M192 236 C192 345 247 410 319 414 C320 414 321 414 322 414 C318 396 315 379 315 362 C315 309 345 274 394 274 C438 274 468 307 468 352 C468 416 400 469 295 469 C143 469 30 355 30 217 C30 78 141 -16 270 -16 C271 -16 273 -16 274 -16 L161 -110 L181 -130 C192 -128 198 -127 208 -127 C248 -127 276 -146 276 -185 C276 -225 247 -239 222 -239 C207 -239 202 -238 193 -234 C195 -227 196 -221 196 -214 C196 -195 183 -175 160 -175 C138 -175 124 -193 124 -213 C124 -250 170 -270 232 -270 C306 -270 360 -226 360 -162 C360 -109 319 -77 265 -68 L339 -7 C383 4 424 28 464 65 L453 95 C409 81 382 76 347 76 C257 76 192 128 192 236 L192 236 Z " />
<glyph glyph-name="egrave" unicode="&#xe8;" horiz-adv-x="519" d="M319 537 C299 625 285 680 269 708 C244 751 200 767 163 744 C126 721 123 676 153 634 C174 605 223 563 288 516 L319 537 Z M491 221 C499 357 442 469 278 469 C153 469 30 362 30 217 C30 78 122 -16 273 -16 C340 -16 423 19 485 66 L473 91 C412 74 370 68 324 68 C233 68 188 121 185 221 L491 221 Z M186 260 C189 365 222 422 271 422 C322 422 345 376 345 271 L186 260 Z " />
<glyph glyph-name="eacute" unicode="&#xe9;" horiz-adv-x="519" d="M382 744 C345 767 301 751 276 708 C260 680 246 625 226 537 L257 516 C322 563 371 605 392 634 C422 676 419 720 382 744 L382 744 Z M491 221 C499 357 442 469 278 469 C153 469 30 362 30 217 C30 78 122 -16 273 -16 C340 -16 423 19 485 66 L473 91 C412 74 370 68 324 68 C233 68 188 121 185 221 L491 221 Z M186 260 C189 365 222 422 271 422 C322 422 345 376 345 271 L186 260 Z " />
<glyph glyph-name="ecircumflex" unicode="&#xea;" horiz-adv-x="519" d="M277 611 L405 512 L435 540 L321 738 L240 738 L119 540 L149 512 L277 611 Z M491 221 C499 357 442 469 278 469 C153 469 30 362 30 217 C30 78 122 -16 273 -16 C340 -16 423 19 485 66 L473 91 C412 74 370 68 324 68 C233 68 188 121 185 221 L491 221 Z M186 260 C189 365 222 422 271 422 C322 422 345 376 345 271 L186 260 Z " />
<glyph glyph-name="edieresis" unicode="&#xeb;" horiz-adv-x="519" d="M387 523 C437 523 474 566 474 611 C474 658 441 692 395 692 C345 692 308 649 308 604 C308 558 341 523 387 523 L387 523 Z M166 523 C215 523 252 566 252 611 C252 658 220 692 173 692 C124 692 87 649 87 604 C87 558 119 523 166 523 L166 523 Z M491 221 C499 357 442 469 278 469 C153 469 30 362 30 217 C30 78 122 -16 273 -16 C340 -16 423 19 485 66 L473 91 C412 74 370 68 324 68 C233 68 188 121 185 221 L491 221 Z M186 260 C189 365 222 422 271 422 C322 422 345 376 345 271 L186 260 Z " />
<glyph glyph-name="igrave" unicode="&#xec;" horiz-adv-x="309" d="M219 532 C199 620 185 675 169 703 C144 746 100 762 63 739 C26 716 23 671 53 629 C74 600 123 558 188 511 L219 532 Z M80 58 L17 34 L17 0 L298 0 L298 34 L238 58 L238 459 L214 472 L21 430 L21 400 L80 353 L80 58 Z " />
<glyph glyph-name="iacute" unicode="&#xed;" horiz-adv-x="309" d="M249 739 C212 762 168 746 143 703 C127 675 113 620 93 532 L124 511 C189 558 238 600 259 629 C289 671 286 715 249 739 L249 739 Z M80 58 L17 34 L17 0 L298 0 L298 34 L238 58 L238 459 L214 472 L21 430 L21 400 L80 353 L80 58 Z " />
<glyph glyph-name="icircumflex" unicode="&#xee;" horiz-adv-x="309" d="M149 611 L277 512 L307 540 L193 738 L112 738 L-9 540 L21 512 L149 611 Z M80 58 L17 34 L17 0 L298 0 L298 34 L238 58 L238 459 L214 472 L21 430 L21 400 L80 353 L80 58 Z " />
<glyph glyph-name="idieresis" unicode="&#xef;" horiz-adv-x="309" d="M264 523 C314 523 351 566 351 611 C351 658 318 692 272 692 C222 692 185 649 185 604 C185 558 218 523 264 523 L264 523 Z M43 523 C92 523 129 566 129 611 C129 658 97 692 50 692 C1 692 -36 649 -36 604 C-36 558 -4 523 43 523 L43 523 Z M80 58 L17 34 L17 0 L298 0 L298 34 L238 58 L238 459 L214 472 L21 430 L21 400 L80 353 L80 58 Z " />
<glyph glyph-name="eth" unicode="&#xf0;" horiz-adv-x="564" d="M525 289 C525 431 468 538 376 616 L460 652 L438 704 L322 655 C266 692 201 721 129 744 L111 704 C160 677 201 649 234 618 L158 586 L180 533 L277 574 C311 533 334 489 345 438 L336 433 C299 458 273 472 231 472 C115 472 34 369 34 233 C34 78 133 -15 263 -15 C414 -15 525 92 525 289 L525 289 Z M364 261 C364 119 331 38 274 38 C224 38 192 95 192 218 C192 335 227 393 291 393 C316 393 332 388 355 375 C362 343 364 300 364 261 L364 261 Z " />
<glyph glyph-name="ntilde" unicode="&#xf1;" horiz-adv-x="601" d="M133 524 L180 518 C195 559 206 575 228 575 C271 575 327 525 385 525 C451 525 479 574 490 693 L443 699 C428 658 417 642 395 642 C352 642 296 692 238 692 C172 692 144 643 133 524 L133 524 Z M538 333 C538 415 493 469 410 469 C354 469 300 442 239 386 L225 388 L232 459 L208 472 L20 430 L20 400 L80 353 L80 58 L20 34 L20 0 L284 0 L284 34 L238 58 L238 350 C268 363 282 368 313 368 C363 368 380 334 380 281 L380 58 L334 34 L334 0 L598 0 L598 34 L538 58 L538 333 Z " />
<glyph glyph-name="ograve" unicode="&#xf2;" horiz-adv-x="570" d="M335 537 C315 625 301 680 285 708 C260 751 216 767 179 744 C142 721 139 676 169 634 C190 605 239 563 304 516 L335 537 Z M540 227 C540 355 462 469 291 469 C121 469 30 347 30 227 C30 98 108 -16 279 -16 C450 -16 540 107 540 227 L540 227 Z M373 227 C373 114 347 37 285 37 C223 37 197 114 197 227 C197 340 223 417 285 417 C347 417 373 340 373 227 L373 227 Z " />
<glyph glyph-name="oacute" unicode="&#xf3;" horiz-adv-x="570" d="M389 744 C352 767 308 751 283 708 C267 680 253 625 233 537 L264 516 C329 563 378 605 399 634 C429 676 426 720 389 744 L389 744 Z M540 227 C540 355 462 469 291 469 C121 469 30 347 30 227 C30 98 108 -16 279 -16 C450 -16 540 107 540 227 L540 227 Z M373 227 C373 114 347 37 285 37 C223 37 197 114 197 227 C197 340 223 417 285 417 C347 417 373 340 373 227 L373 227 Z " />
<glyph glyph-name="ocircumflex" unicode="&#xf4;" horiz-adv-x="570" d="M285 611 L413 512 L443 540 L329 738 L248 738 L127 540 L157 512 L285 611 Z M540 227 C540 355 462 469 291 469 C121 469 30 347 30 227 C30 98 108 -16 279 -16 C450 -16 540 107 540 227 L540 227 Z M373 227 C373 114 347 37 285 37 C223 37 197 114 197 227 C197 340 223 417 285 417 C347 417 373 340 373 227 L373 227 Z " />
<glyph glyph-name="otilde" unicode="&#xf5;" horiz-adv-x="570" d="M108 524 L155 518 C170 559 181 575 203 575 C246 575 302 525 360 525 C426 525 454 574 465 693 L418 699 C403 658 392 642 370 642 C327 642 271 692 213 692 C147 692 119 643 108 524 L108 524 Z M540 227 C540 355 462 469 291 469 C121 469 30 347 30 227 C30 98 108 -16 279 -16 C450 -16 540 107 540 227 L540 227 Z M373 227 C373 114 347 37 285 37 C223 37 197 114 197 227 C197 340 223 417 285 417 C347 417 373 340 373 227 L373 227 Z " />
<glyph glyph-name="odieresis" unicode="&#xf6;" horiz-adv-x="570" d="M397 523 C447 523 484 566 484 611 C484 658 451 692 405 692 C355 692 318 649 318 604 C318 558 351 523 397 523 L397 523 Z M176 523 C225 523 262 566 262 611 C262 658 230 692 183 692 C134 692 97 649 97 604 C97 558 129 523 176 523 L176 523 Z M540 227 C540 355 462 469 291 469 C121 469 30 347 30 227 C30 98 108 -16 279 -16 C450 -16 540 107 540 227 L540 227 Z M373 227 C373 114 347 37 285 37 C223 37 197 114 197 227 C197 340 223 417 285 417 C347 417 373 340 373 227 L373 227 Z " />
<glyph glyph-name="divide" unicode="&#xf7;" horiz-adv-x="520" d="M260 529 C222 529 192 499 192 461 C192 423 222 393 260 393 C298 393 328 423 328 461 C328 499 298 529 260 529 L260 529 Z M466 276 L466 337 L53 337 L53 276 L466 276 Z M260 220 C222 220 192 190 192 152 C192 114 222 84 260 84 C298 84 328 114 328 152 C328 190 298 220 260 220 L260 220 Z " />
<glyph glyph-name="oslash" unicode="&#xf8;" horiz-adv-x="570" d="M478 393 L524 443 L481 475 L437 428 C398 454 349 469 291 469 C121 469 30 347 30 227 C30 162 53 101 96 57 L47 4 L85 -27 L134 25 C172 -1 221 -16 279 -16 C450 -16 540 107 540 227 C540 290 518 349 478 393 L478 393 Z M361 351 L196 161 C193 181 192 203 192 227 C192 341 222 419 285 419 C321 419 346 394 361 351 L361 351 Z M378 227 C378 113 348 35 285 35 C250 35 225 59 210 101 L375 287 C377 269 378 248 378 227 L378 227 Z " />
<glyph glyph-name="ugrave" unicode="&#xf9;" horiz-adv-x="596" d="M345 532 C325 620 311 675 295 703 C270 746 226 762 189 739 C152 716 149 671 179 629 C200 600 249 558 314 511 L345 532 Z M521 101 L521 459 L497 472 L304 430 L304 400 L363 353 L363 104 C333 91 319 86 288 86 C238 86 221 120 221 173 L221 459 L197 472 L4 430 L4 400 L63 353 L63 121 C63 39 108 -15 191 -15 C247 -15 301 12 362 68 L376 66 L369 -5 L393 -18 L581 24 L581 54 L521 101 Z " />
<glyph glyph-name="uacute" unicode="&#xfa;" horiz-adv-x="596" d="M391 739 C354 762 310 746 285 703 C269 675 255 620 235 532 L266 511 C331 558 380 600 401 629 C431 671 428 715 391 739 L391 739 Z M521 101 L521 459 L497 472 L304 430 L304 400 L363 353 L363 104 C333 91 319 86 288 86 C238 86 221 120 221 173 L221 459 L197 472 L4 430 L4 400 L63 353 L63 121 C63 39 108 -15 191 -15 C247 -15 301 12 362 68 L376 66 L369 -5 L393 -18 L581 24 L581 54 L521 101 Z " />
<glyph glyph-name="ucircumflex" unicode="&#xfb;" horiz-adv-x="596" d="M293 611 L421 512 L451 540 L337 738 L256 738 L135 540 L165 512 L293 611 Z M521 101 L521 459 L497 472 L304 430 L304 400 L363 353 L363 104 C333 91 319 86 288 86 C238 86 221 120 221 173 L221 459 L197 472 L4 430 L4 400 L63 353 L63 121 C63 39 108 -15 191 -15 C247 -15 301 12 362 68 L376 66 L369 -5 L393 -18 L581 24 L581 54 L521 101 Z " />
<glyph glyph-name="udieresis" unicode="&#xfc;" horiz-adv-x="596" d="M400 523 C450 523 487 566 487 611 C487 658 454 692 408 692 C358 692 321 649 321 604 C321 558 354 523 400 523 L400 523 Z M179 523 C228 523 265 566 265 611 C265 658 233 692 186 692 C137 692 100 649 100 604 C100 558 132 523 179 523 L179 523 Z M521 101 L521 459 L497 472 L304 430 L304 400 L363 353 L363 104 C333 91 319 86 288 86 C238 86 221 120 221 173 L221 459 L197 472 L4 430 L4 400 L63 353 L63 121 C63 39 108 -15 191 -15 C247 -15 301 12 362 68 L376 66 L369 -5 L393 -18 L581 24 L581 54 L521 101 Z " />
<glyph glyph-name="yacute" unicode="&#xfd;" horiz-adv-x="553" d="M407 739 C370 762 326 746 301 703 C285 675 271 620 251 532 L282 511 C347 558 396 600 417 629 C447 671 444 715 407 739 L407 739 Z M500 385 L561 420 L561 454 L361 454 L361 423 L415 390 L329 148 L324 148 L227 394 L289 423 L289 454 L-7 454 L-7 420 L53 394 L250 -38 L239 -57 C224 -83 208 -104 185 -124 C164 -87 138 -64 101 -64 C61 -64 29 -93 29 -132 C29 -175 66 -207 130 -207 C216 -207 271 -160 326 -30 L500 385 Z " />
<glyph glyph-name="thorn" unicode="&#xfe;" horiz-adv-x="585" d="M552 240 C552 378 472 469 375 469 C319 469 276 444 237 411 L223 413 L223 728 L199 741 L0 689 L0 659 L65 612 L65 -150 L5 -174 L5 -207 L293 -207 L293 -174 L223 -150 L223 -10 C244 -14 265 -16 285 -16 C454 -16 552 105 552 240 L552 240 Z M385 209 C385 83 345 36 302 36 C265 36 243 52 223 85 L223 365 C244 370 263 373 280 373 C348 373 385 323 385 209 L385 209 Z " />
<glyph glyph-name="ydieresis" unicode="&#xff;" horiz-adv-x="553" d="M413 523 C463 523 500 566 500 611 C500 658 467 692 421 692 C371 692 334 649 334 604 C334 558 367 523 413 523 L413 523 Z M192 523 C241 523 278 566 278 611 C278 658 246 692 199 692 C150 692 113 649 113 604 C113 558 145 523 192 523 L192 523 Z M500 385 L561 420 L561 454 L361 454 L361 423 L415 390 L329 148 L324 148 L227 394 L289 423 L289 454 L-7 454 L-7 420 L53 394 L250 -38 L239 -57 C224 -83 208 -104 185 -124 C164 -87 138 -64 101 -64 C61 -64 29 -93 29 -132 C29 -175 66 -207 130 -207 C216 -207 271 -160 326 -30 L500 385 Z " />
<glyph glyph-name="dotlessi" unicode="&#x131;" horiz-adv-x="309" d="M80 58 L17 34 L17 0 L298 0 L298 34 L238 58 L238 459 L214 472 L21 430 L21 400 L80 353 L80 58 Z " />
<glyph glyph-name="Lslash" unicode="&#x141;" horiz-adv-x="640" d="M613 237 L586 240 L511 144 C464 84 432 62 374 59 L298 55 L298 317 L438 355 L420 415 L298 382 L298 576 L387 600 L387 637 L33 637 L33 600 L122 576 L122 334 L42 312 L59 252 L122 269 L122 61 L33 37 L33 0 L590 0 L613 237 Z " />
<glyph glyph-name="lslash" unicode="&#x142;" horiz-adv-x="354" d="M256 347 L355 377 L337 437 L256 412 L256 728 L232 741 L36 689 L36 659 L102 612 L102 365 L15 339 L32 279 L102 300 L102 58 L37 34 L37 0 L318 0 L318 34 L256 58 L256 347 Z " />
<glyph glyph-name="OE" unicode="&#x152;" horiz-adv-x="1030" d="M998 207 L969 211 L897 127 C862 86 836 64 776 61 L653 55 L653 290 L689 290 C738 290 750 278 775 212 L786 183 L818 183 L818 454 L787 454 L775 422 C749 353 739 344 689 344 L653 344 L653 583 L744 579 C811 576 834 558 873 507 L943 417 L972 422 L958 637 L424 637 C196 637 45 512 45 310 C45 118 191 0 417 0 L979 0 L998 207 Z M240 318 C240 511 310 572 419 578 L473 581 L473 55 L439 57 C323 64 240 133 240 318 L240 318 Z " />
<glyph glyph-name="oe" unicode="&#x153;" horiz-adv-x="860" d="M526 221 L832 221 C840 357 783 469 624 469 C557 469 506 442 463 398 C421 442 367 469 286 469 C121 469 30 347 30 227 C30 98 108 -16 274 -16 C355 -16 403 9 449 50 C488 8 545 -16 619 -16 C684 -16 764 19 826 66 L814 91 C753 74 711 68 665 68 C574 68 529 121 526 221 L526 221 Z M527 260 C530 365 563 422 612 422 C663 422 686 376 686 271 L527 260 Z M373 227 C373 114 347 37 285 37 C223 37 197 114 197 227 C197 340 223 417 285 417 C347 417 373 340 373 227 L373 227 Z " />
<glyph glyph-name="Scaron" unicode="&#x160;" horiz-adv-x="574" d="M296 828 L168 927 L138 899 L252 701 L333 701 L454 899 L424 927 L296 828 Z M533 198 C533 272 496 331 415 370 C378 388 336 401 301 417 C233 448 209 473 209 517 C209 564 243 594 296 594 C359 594 405 554 458 448 L503 451 L486 652 L446 652 L418 618 C383 637 341 652 280 652 C154 652 61 568 61 455 C61 375 102 318 173 284 C204 269 239 255 271 242 C358 206 388 184 388 132 C388 81 349 43 282 43 C216 43 154 75 94 215 L48 213 L61 -12 L101 -12 L128 23 C169 3 222 -15 290 -15 C436 -15 533 72 533 198 L533 198 Z " />
<glyph glyph-name="scaron" unicode="&#x161;" horiz-adv-x="445" d="M231 647 L103 746 L73 718 L187 520 L268 520 L389 718 L359 746 L231 647 Z M415 146 C415 225 359 256 258 293 C189 318 165 333 165 369 C165 398 186 422 227 422 C268 422 297 399 349 323 L384 327 L381 451 C348 461 308 469 241 469 C113 469 40 400 40 320 C40 235 103 204 177 175 C258 143 289 126 289 86 C289 50 261 31 222 31 C175 31 141 57 74 150 L39 148 L42 11 C88 -7 140 -16 214 -16 C328 -16 415 46 415 146 L415 146 Z " />
<glyph glyph-name="Ydieresis" unicode="&#x178;" horiz-adv-x="737" d="M529 709 C579 709 616 752 616 797 C616 844 583 878 537 878 C487 878 450 835 450 790 C450 744 483 709 529 709 L529 709 Z M308 709 C357 709 394 752 394 797 C394 844 362 878 315 878 C266 878 229 835 229 790 C229 744 261 709 308 709 L308 709 Z M646 567 L725 600 L725 637 L497 637 L497 605 L550 569 L433 341 L303 575 L368 605 L368 637 L22 637 L22 600 L108 565 L289 253 L289 68 L200 37 L200 0 L559 0 L559 37 L469 68 L469 278 L646 567 Z " />
<glyph glyph-name="Zcaron" unicode="&#x17d;" horiz-adv-x="660" d="M347 823 L219 922 L189 894 L303 696 L384 696 L505 894 L475 922 L347 823 Z M620 243 L592 247 L522 141 C487 88 458 64 407 63 L243 60 L627 607 L623 637 L79 637 L62 418 L93 413 L152 490 C201 554 230 571 282 572 L414 575 L26 30 L30 0 L604 0 L620 243 Z " />
<glyph glyph-name="zcaron" unicode="&#x17e;" horiz-adv-x="501" d="M257 637 L129 736 L99 708 L213 510 L294 510 L415 708 L385 736 L257 637 Z M487 426 L478 454 L49 454 L40 274 L78 268 L161 396 L300 396 L13 29 L22 0 L464 0 L476 180 L438 186 L347 58 L200 58 L487 426 Z " />
<glyph glyph-name="florin" unicode="&#x192;" horiz-adv-x="518" d="M540 559 C540 601 503 629 440 629 C393 629 352 614 313 590 C233 541 186 458 162 370 L159 359 L49 320 L40 283 L143 283 L95 46 C72 -67 56 -104 41 -120 C16 -72 -30 -45 -67 -45 C-110 -45 -136 -77 -136 -113 C-136 -157 -93 -185 -33 -185 C12 -185 61 -169 103 -138 C177 -84 222 0 248 128 L280 283 L400 283 L416 347 L292 347 L304 407 C323 503 337 541 361 562 C395 509 433 488 468 488 C512 488 540 521 540 559 L540 559 Z " />
<glyph glyph-name="circumflex" unicode="&#x2c6;" horiz-adv-x="319" d="M159 611 L287 512 L317 540 L203 738 L122 738 L1 540 L31 512 L159 611 Z " />
<glyph glyph-name="caron" unicode="&#x2c7;" horiz-adv-x="319" d="M159 637 L31 736 L1 708 L115 510 L196 510 L317 708 L287 736 L159 637 Z " />
<glyph glyph-name="breve" unicode="&#x2d8;" horiz-adv-x="336" d="M167 623 C110 623 72 660 52 721 L10 708 C21 571 80 511 167 511 C255 511 312 571 327 708 L285 721 C262 660 224 623 167 623 L167 623 Z " />
<glyph glyph-name="dotaccent" unicode="&#x2d9;" horiz-adv-x="207" d="M190 614 C190 663 156 698 108 698 C56 698 18 654 18 607 C18 559 52 523 100 523 C152 523 190 567 190 614 L190 614 Z " />
<glyph glyph-name="ring" unicode="&#x2da;" horiz-adv-x="259" d="M253 623 C253 687 205 731 131 731 C56 731 3 683 3 622 C3 558 52 512 126 512 C201 512 253 562 253 623 L253 623 Z M179 623 C179 574 159 547 129 547 C101 547 77 573 77 621 C77 670 99 697 127 697 C157 697 179 671 179 623 L179 623 Z " />
<glyph glyph-name="ogonek" unicode="&#x2db;" horiz-adv-x="269" d="M234 22 L216 48 C77 -13 1 -76 1 -157 C1 -231 57 -265 123 -265 C175 -265 217 -247 258 -213 L237 -180 C221 -187 197 -193 174 -193 C134 -193 110 -172 110 -131 C110 -90 140 -43 234 22 L234 22 Z " />
<glyph glyph-name="tilde" unicode="&#x2dc;" horiz-adv-x="351" d="M-1 524 L46 518 C61 559 72 575 94 575 C137 575 193 525 251 525 C317 525 345 574 356 693 L309 699 C294 658 283 642 261 642 C218 642 162 692 104 692 C38 692 10 643 -1 524 L-1 524 Z " />
<glyph glyph-name="hungarumlaut" unicode="&#x2dd;" horiz-adv-x="334" d="M340 640 C368 678 368 718 333 740 C301 760 263 745 241 706 C221 671 199 606 181 527 L205 511 C266 557 314 605 340 640 L340 640 Z M156 640 C184 678 184 718 149 740 C117 760 79 745 57 706 C37 671 17 606 -1 527 L23 511 C84 557 130 605 156 640 L156 640 Z " />
<glyph glyph-name="pi" unicode="&#x3c0;" horiz-adv-x="788" d="M745 320 C745 513 588 670 394 670 C201 670 43 513 43 320 C43 126 201 -31 394 -31 C588 -31 745 126 745 320 L745 320 Z M702 320 C702 149 564 7 394 7 C224 7 87 149 87 320 C87 491 224 632 394 632 C564 632 702 491 702 320 L702 320 Z M580 391 C580 464 520 503 428 503 L230 503 L230 477 L277 463 L277 176 L230 162 L230 136 L437 136 L437 162 L383 176 L383 278 C397 277 416 275 432 275 C520 275 580 312 580 391 L580 391 Z M471 391 C471 338 443 314 397 314 L383 314 L383 466 L400 465 C442 462 471 441 471 391 L471 391 Z " />
<glyph glyph-name="endash" unicode="&#x2013;" horiz-adv-x="533" d="M495 213 L495 292 L38 292 L38 213 L495 213 Z " />
<glyph glyph-name="emdash" unicode="&#x2014;" horiz-adv-x="783" d="M745 213 L745 292 L38 292 L38 213 L745 213 Z " />
<glyph glyph-name="quoteleft" unicode="&#x2018;" horiz-adv-x="250" d="M211 398 C211 439 185 473 145 473 C142 473 137 473 132 472 L126 471 L118 479 C127 518 166 571 233 632 L209 659 C94 595 29 509 29 416 C29 344 67 305 126 305 C174 305 211 351 211 398 L211 398 Z " />
<glyph glyph-name="quoteright" unicode="&#x2019;" horiz-adv-x="250" d="M221 541 C221 613 183 652 124 652 C76 652 39 606 39 559 C39 518 65 484 105 484 C108 484 113 484 118 485 L124 486 L132 478 C123 439 84 386 17 325 L41 298 C156 362 221 448 221 541 L221 541 Z " />
<glyph glyph-name="quotesinglbase" unicode="&#x201a;" horiz-adv-x="250" d="M216 55 C216 127 178 166 119 166 C71 166 34 120 34 73 C34 32 60 -2 100 -2 C103 -2 108 -2 113 -1 L119 0 L127 -8 C118 -47 79 -100 12 -161 L36 -188 C151 -124 216 -38 216 55 L216 55 Z " />
<glyph glyph-name="quotedblleft" unicode="&#x201c;" horiz-adv-x="485" d="M446 398 C446 439 420 473 380 473 C377 473 372 473 367 472 L361 471 L353 479 C362 518 401 571 468 632 L444 659 C329 595 264 509 264 416 C264 344 302 305 361 305 C409 305 446 351 446 398 L446 398 Z M211 398 C211 439 185 473 145 473 C142 473 137 473 132 472 L126 471 L118 479 C127 518 166 571 233 632 L209 659 C94 595 29 509 29 416 C29 344 67 305 126 305 C174 305 211 351 211 398 L211 398 Z " />
<glyph glyph-name="quotedblright" unicode="&#x201d;" horiz-adv-x="485" d="M456 541 C456 613 418 652 359 652 C311 652 274 606 274 559 C274 518 300 484 340 484 C343 484 348 484 353 485 L359 486 L367 478 C358 439 319 386 252 325 L276 298 C391 362 456 448 456 541 L456 541 Z M221 541 C221 613 183 652 124 652 C76 652 39 606 39 559 C39 518 65 484 105 484 C108 484 113 484 118 485 L124 486 L132 478 C123 439 84 386 17 325 L41 298 C156 362 221 448 221 541 L221 541 Z " />
<glyph glyph-name="quotedblbase" unicode="&#x201e;" horiz-adv-x="480" d="M451 55 C451 127 413 166 354 166 C306 166 269 120 269 73 C269 32 295 -2 335 -2 C338 -2 343 -2 348 -1 L354 0 L362 -8 C353 -47 314 -100 247 -161 L271 -188 C386 -124 451 -38 451 55 L451 55 Z M216 55 C216 127 178 166 119 166 C71 166 34 120 34 73 C34 32 60 -2 100 -2 C103 -2 108 -2 113 -1 L119 0 L127 -8 C118 -47 79 -100 12 -161 L36 -188 C151 -124 216 -38 216 55 L216 55 Z " />
<glyph glyph-name="dagger" unicode="&#x2020;" horiz-adv-x="474" d="M444 387 L444 448 L265 443 L270 670 L204 670 L209 443 L30 448 L30 387 L209 392 L204 -83 L270 -83 L265 392 L444 387 Z " />
<glyph glyph-name="daggerdbl" unicode="&#x2021;" horiz-adv-x="474" d="M444 134 L444 193 L265 188 L265 399 L444 394 L444 453 L265 448 L270 670 L204 670 L209 448 L30 453 L30 394 L209 399 L209 188 L30 193 L30 134 L209 139 L204 -83 L270 -83 L265 139 L444 134 Z " />
<glyph glyph-name="bullet" unicode="&#x2022;" horiz-adv-x="500" d="M425 319 C425 416 346 495 249 495 C151 495 72 416 72 319 C72 221 151 142 249 142 C346 142 425 221 425 319 L425 319 Z " />
<glyph glyph-name="ellipsis" unicode="&#x2026;" horiz-adv-x="744" d="M710 72 C710 120 670 160 622 160 C574 160 534 120 534 72 C534 24 574 -16 622 -16 C670 -16 710 24 710 72 L710 72 Z M460 72 C460 120 420 160 372 160 C324 160 284 120 284 72 C284 24 324 -16 372 -16 C420 -16 460 24 460 72 L460 72 Z M210 72 C210 120 170 160 122 160 C74 160 34 120 34 72 C34 24 74 -16 122 -16 C170 -16 210 24 210 72 L210 72 Z " />
<glyph glyph-name="perthousand" unicode="&#x2030;" horiz-adv-x="788" d="M745 320 C745 513 588 670 394 670 C201 670 43 513 43 320 C43 126 201 -31 394 -31 C588 -31 745 126 745 320 L745 320 Z M702 320 C702 149 564 7 394 7 C224 7 87 149 87 320 C87 491 224 632 394 632 C564 632 702 491 702 320 L702 320 Z M563 417 C563 475 513 510 425 510 L207 510 L207 484 L254 470 L254 183 L207 169 L207 143 L407 143 L407 169 L360 183 L360 295 L368 295 C399 295 419 286 431 254 L449 206 C467 158 483 143 526 143 L605 143 L605 169 C591 171 582 178 573 188 C561 201 550 220 542 246 C530 285 507 304 453 311 L453 324 C535 335 563 374 563 417 L563 417 Z M457 402 C457 356 428 337 386 334 L360 332 L360 472 L384 471 C428 469 457 447 457 402 L457 402 Z " />
<glyph glyph-name="guilsinglleft" unicode="&#x2039;" horiz-adv-x="326" d="M177 224 L270 402 L237 428 L30 239 L30 209 L237 20 L270 45 L177 224 Z " />
<glyph glyph-name="guilsinglright" unicode="&#x203a;" horiz-adv-x="326" d="M296 239 L89 428 L56 403 L149 224 L56 46 L89 20 L296 209 L296 239 Z " />
<glyph glyph-name="fraction" unicode="&#x2044;" horiz-adv-x="536" d="M529 608 L464 645 L237 320 L4 2 L69 -35 L298 291 L529 608 Z " />
<glyph glyph-name="trademark" unicode="&#x2122;" horiz-adv-x="900" d="M818 593 L862 606 L862 637 L687 637 L674 589 L626 437 L620 437 L578 587 L566 637 L391 637 L391 606 L429 591 L429 397 L391 380 L391 350 L510 350 L510 380 L476 397 L476 602 L486 602 L564 350 L633 350 L720 602 L729 602 L729 394 L693 380 L693 350 L862 350 L862 380 L818 394 L818 593 Z M361 529 L348 637 L51 637 L38 529 L64 526 L97 573 C116 599 122 605 143 605 L157 605 L157 394 L111 380 L111 350 L291 350 L291 380 L245 394 L245 605 L256 605 C277 605 284 599 302 573 L335 526 L361 529 Z " />
<glyph glyph-name="Omega" unicode="&#x2126;" horiz-adv-x="689" d="M564 455 L564 519 C564 616 580 659 618 683 C640 614 676 584 721 584 C760 584 788 610 788 652 C788 698 744 741 664 741 C610 741 556 727 511 699 C503 694 496 689 488 683 C472 716 430 741 366 741 C309 741 252 727 205 699 C132 656 94 592 94 493 L94 458 L4 413 L4 381 L94 381 L94 58 L34 34 L34 0 L305 0 L305 34 L252 58 L252 381 L406 381 L406 58 L355 34 L355 0 L639 0 L639 34 L564 58 L564 381 L689 381 L689 455 L564 455 Z M252 455 L252 519 C252 616 274 663 323 683 C342 623 378 593 420 587 C411 560 406 529 406 493 L406 455 L252 455 Z " />
<glyph glyph-name="partialdiff" unicode="&#x2202;" horiz-adv-x="500" d="M25 -200 L475 -200 L475 800 L25 800 L25 -200 Z " />
<glyph glyph-name="Delta" unicode="&#x2206;" horiz-adv-x="500" d="M25 -200 L475 -200 L475 800 L25 800 L25 -200 Z " />
<glyph glyph-name="product" unicode="&#x220f;" horiz-adv-x="500" d="M25 -200 L475 -200 L475 800 L25 800 L25 -200 Z " />
<glyph glyph-name="summation" unicode="&#x2211;" horiz-adv-x="500" d="M25 -200 L475 -200 L475 800 L25 800 L25 -200 Z " />
<glyph glyph-name="minus" unicode="&#x2212;" horiz-adv-x="520" d="M463 272 L463 342 L58 342 L58 272 L463 272 Z " />
<glyph glyph-name="radical" unicode="&#x221a;" horiz-adv-x="942" d="M871 58 L871 728 L847 741 L782 724 C759 735 731 741 698 741 C619 741 558 722 501 676 C499 674 496 672 494 670 C483 709 439 741 366 741 C309 741 252 727 205 699 C132 656 94 592 94 493 L94 458 L4 413 L4 381 L94 381 L94 58 L34 34 L34 0 L305 0 L305 34 L252 58 L252 381 L406 381 L406 58 L355 34 L355 0 L614 0 L614 34 L564 58 L564 381 L713 381 L713 58 L664 34 L664 0 L931 0 L931 34 L871 58 Z M564 455 L564 499 C564 607 597 674 674 687 C677 637 689 598 713 576 L713 455 L564 455 Z M252 455 L252 519 C252 616 274 663 323 683 C344 618 383 589 430 586 C413 549 406 508 406 463 L406 455 L252 455 Z " />
<glyph glyph-name="infinity" unicode="&#x221e;" horiz-adv-x="500" d="M25 -200 L475 -200 L475 800 L25 800 L25 -200 Z " />
<glyph glyph-name="integral" unicode="&#x222b;" horiz-adv-x="500" d="M25 -200 L475 -200 L475 800 L25 800 L25 -200 Z " />
<glyph glyph-name="approxequal" unicode="&#x2248;" horiz-adv-x="942" d="M564 455 L564 499 C564 607 597 674 674 687 C679 607 706 555 772 555 C815 555 849 584 849 633 C849 688 793 741 698 741 C619 741 558 722 501 676 C499 674 496 672 494 670 C483 709 439 741 366 741 C309 741 252 727 205 699 C132 656 94 592 94 493 L94 458 L4 413 L4 381 L94 381 L94 58 L34 34 L34 0 L305 0 L305 34 L252 58 L252 381 L406 381 L406 58 L355 34 L355 0 L614 0 L614 34 L564 58 L564 381 L713 381 L713 58 L664 34 L664 0 L931 0 L931 34 L871 58 L871 459 L847 472 L769 455 L564 455 Z M252 455 L252 519 C252 616 274 663 323 683 C344 618 383 589 430 586 C413 549 406 508 406 463 L406 455 L252 455 Z " />
<glyph glyph-name="notequal" unicode="&#x2260;" horiz-adv-x="500" d="M25 -200 L475 -200 L475 800 L25 800 L25 -200 Z " />
<glyph glyph-name="lessequal" unicode="&#x2264;" horiz-adv-x="500" d="M25 -200 L475 -200 L475 800 L25 800 L25 -200 Z " />
<glyph glyph-name="greaterequal" unicode="&#x2265;" horiz-adv-x="500" d="M25 -200 L475 -200 L475 800 L25 800 L25 -200 Z " />
<glyph glyph-name="lozenge" unicode="&#x25ca;" horiz-adv-x="856" d="M774 593 L818 606 L818 637 L643 637 L630 589 L582 437 L576 437 L534 587 L522 637 L347 637 L347 606 L385 591 L385 397 L347 380 L347 350 L466 350 L466 380 L432 397 L432 602 L442 602 L520 350 L589 350 L676 602 L685 602 L685 394 L649 380 L649 350 L818 350 L818 380 L774 394 L774 593 Z M306 438 C306 494 261 513 207 530 C155 547 132 555 132 582 C132 599 146 615 172 615 C202 615 231 597 261 548 L292 551 L286 648 L261 648 L250 629 C229 638 198 645 169 645 C112 645 57 610 57 549 C57 491 108 471 156 457 C206 442 231 434 231 407 C231 385 213 371 183 371 C149 371 113 394 81 449 L50 448 L53 339 L79 339 L90 359 C117 349 155 340 187 340 C249 340 306 375 306 438 L306 438 Z " />
<glyph glyph-name="fi" unicode="&#xfb01;" horiz-adv-x="630" d="M252 381 L401 381 L401 58 L352 34 L352 0 L619 0 L619 34 L559 58 L559 459 L535 472 L457 455 L252 455 L252 499 C252 607 285 674 362 687 C367 607 394 555 460 555 C503 555 537 584 537 633 C537 688 481 741 386 741 C307 741 246 722 189 676 C121 621 94 548 94 463 L94 458 L4 413 L4 381 L94 381 L94 58 L34 34 L34 0 L302 0 L302 34 L252 58 L252 381 Z " />
<glyph glyph-name="fl" unicode="&#xfb02;" horiz-adv-x="630" d="M559 58 L559 728 L535 741 L470 724 C447 735 419 741 386 741 C307 741 246 722 189 676 C121 621 94 548 94 463 L94 458 L4 413 L4 381 L94 381 L94 58 L34 34 L34 0 L302 0 L302 34 L252 58 L252 381 L401 381 L401 58 L352 34 L352 0 L619 0 L619 34 L559 58 Z M401 455 L252 455 L252 499 C252 607 285 674 362 687 C365 637 377 598 401 576 L401 455 Z " />
</font>
</svg>
